<svg width="24" height="24" viewBox="0 0 24 24" fill="none" xmlns="http://www.w3.org/2000/svg">
<path d="M3 17H2C2 17.5523 2.44772 18 3 18V17ZM5.5 18C6.05228 18 6.5 17.5523 6.5 17C6.5 16.4477 6.05228 16 5.5 16V18ZM3 4V3C2.44772 3 2 3.44772 2 4H3ZM21 4H22C22 3.44772 21.5523 3 21 3V4ZM21 17V18C21.5523 18 22 17.5523 22 17H21ZM18.5 16C17.9477 16 17.5 16.4477 17.5 17C17.5 17.5523 17.9477 18 18.5 18V16ZM12 15L12.7809 14.3753C12.5911 14.1381 12.3038 14 12 14C11.6962 14 11.4089 14.1381 11.2191 14.3753L12 15ZM8 20L7.21913 19.3753C6.979 19.6755 6.93218 20.0867 7.0987 20.4332C7.26522 20.7797 7.61559 21 8 21V20ZM16 20V21C16.3844 21 16.7348 20.7797 16.9013 20.4332C17.0678 20.0867 17.021 19.6755 16.7809 19.3753L16 20ZM3 18H5.5V16H3V18ZM4 17V4H2V17H4ZM3 5H21V3H3V5ZM20 4V17H22V4H20ZM21 16H18.5V18H21V16ZM11.2191 14.3753L7.21913 19.3753L8.78087 20.6247L12.7809 15.6247L11.2191 14.3753ZM8 21H16V19H8V21ZM16.7809 19.3753L12.7809 14.3753L11.2191 15.6247L15.2191 20.6247L16.7809 19.3753Z" fill="black"/>
</svg>
