<svg width="24" height="24" viewBox="0 0 24 24" fill="none" xmlns="http://www.w3.org/2000/svg">
<path d="M20 7.5L17.7426 6.2302M20 7.5V10M20 7.5L17.4019 9M20 16.5V14M20 16.5L17.7426 17.7698M20 16.5L17.4019 15M12 21L14.1791 19.7743M12 21V18M12 21L9.82092 19.7743M4 16.5L6.25741 17.7698M4 16.5V14M4 16.5L6.59808 15M4 7.5V10M4 7.5L6.25741 6.23021M4 7.5L6.59808 9M12 3L9.82093 4.22573M12 3L14.1791 4.22573M12 3V6M12 12V14M12 12L10.2679 11M12 12L13.7321 11" stroke="black" stroke-width="2" stroke-linecap="round" stroke-linejoin="round"/>
</svg>
