<svg width="24" height="24" viewBox="0 0 24 24" fill="none" xmlns="http://www.w3.org/2000/svg">
<path d="M7 9.14291L12 6.28577L17 9.14291M7 9.14291V14.8572L12 17.7143M7 9.14291L12 12.0001M12 17.7143L17 14.8572V9.14291M12 17.7143V12.0001M17 9.14291L12 12.0001M4 4H4.01M20 4H20.01M4 20H4.01M20 20H20.01M4.25 4C4.25 4.13807 4.13807 4.25 4 4.25C3.86193 4.25 3.75 4.13807 3.75 4C3.75 3.86193 3.86193 3.75 4 3.75C4.13807 3.75 4.25 3.86193 4.25 4ZM20.25 4C20.25 4.13807 20.1381 4.25 20 4.25C19.8619 4.25 19.75 4.13807 19.75 4C19.75 3.86193 19.8619 3.75 20 3.75C20.1381 3.75 20.25 3.86193 20.25 4ZM4.25 20C4.25 20.1381 4.13807 20.25 4 20.25C3.86193 20.25 3.75 20.1381 3.75 20C3.75 19.8619 3.86193 19.75 4 19.75C4.13807 19.75 4.25 19.8619 4.25 20ZM20.25 20C20.25 20.1381 20.1381 20.25 20 20.25C19.8619 20.25 19.75 20.1381 19.75 20C19.75 19.8619 19.8619 19.75 20 19.75C20.1381 19.75 20.25 19.8619 20.25 20Z" stroke="black" stroke-width="2" stroke-linecap="round"/>
</svg>
