<svg width="24" height="24" viewBox="0 0 24 24" fill="none" xmlns="http://www.w3.org/2000/svg">
<path d="M2 6V5C1.44772 5 1 5.44772 1 6H2ZM22 6H23C23 5.44772 22.5523 5 22 5V6ZM22 19V20C22.5523 20 23 19.5523 23 19H22ZM2 19H1C1 19.5523 1.44772 20 2 20V19ZM8 19V20C8.24222 20 8.47621 19.9121 8.6585 19.7526L8 19ZM12 15.5L12.6585 14.7474C12.2815 14.4175 11.7185 14.4175 11.3415 14.7474L12 15.5ZM16 19L15.3415 19.7526C15.5238 19.9121 15.7578 20 16 20V19ZM2 7H22V5H2V7ZM21 6V19H23V6H21ZM3 19V6H1V19H3ZM8 18H2V20H8V18ZM11.3415 14.7474L7.3415 18.2474L8.6585 19.7526L12.6585 16.2526L11.3415 14.7474ZM22 18H16V20H22V18ZM16.6585 18.2474L12.6585 14.7474L11.3415 16.2526L15.3415 19.7526L16.6585 18.2474ZM8.25 11.5C8.25 11.9142 7.91421 12.25 7.5 12.25V14.25C9.01878 14.25 10.25 13.0188 10.25 11.5H8.25ZM7.5 12.25C7.08579 12.25 6.75 11.9142 6.75 11.5H4.75C4.75 13.0188 5.98122 14.25 7.5 14.25V12.25ZM6.75 11.5C6.75 11.0858 7.08579 10.75 7.5 10.75V8.75C5.98122 8.75 4.75 9.98122 4.75 11.5H6.75ZM7.5 10.75C7.91421 10.75 8.25 11.0858 8.25 11.5H10.25C10.25 9.98122 9.01878 8.75 7.5 8.75V10.75ZM17.25 11.5C17.25 11.9142 16.9142 12.25 16.5 12.25V14.25C18.0188 14.25 19.25 13.0188 19.25 11.5H17.25ZM16.5 12.25C16.0858 12.25 15.75 11.9142 15.75 11.5H13.75C13.75 13.0188 14.9812 14.25 16.5 14.25V12.25ZM15.75 11.5C15.75 11.0858 16.0858 10.75 16.5 10.75V8.75C14.9812 8.75 13.75 9.98122 13.75 11.5H15.75ZM16.5 10.75C16.9142 10.75 17.25 11.0858 17.25 11.5H19.25C19.25 9.98122 18.0188 8.75 16.5 8.75V10.75Z" fill="black"/>
</svg>
