<svg width="24" height="24" viewBox="0 0 24 24" fill="none" xmlns="http://www.w3.org/2000/svg">
<path d="M21 6C21 4.89543 16.9706 4 12 4C7.02944 4 3 4.89543 3 6M21 6C21 6.78527 18.9634 7.46484 16 7.79211V16.2079M21 6V18C21 18.7853 18.9634 19.4648 16 19.7921V16.2079M3 6C3 6.78527 5.03656 7.46484 8 7.79211V16.2079M3 6V18C3 18.7853 5.03656 19.4648 8 19.7921V16.2079M8 16.2079C9.20496 16.0748 10.5632 16 12 16C13.4368 16 14.795 16.0748 16 16.2079" stroke="black" stroke-width="2" stroke-linecap="square" stroke-linejoin="round"/>
</svg>
