<svg width="24" height="24" viewBox="0 0 24 24" fill="none" xmlns="http://www.w3.org/2000/svg">
<path d="M4 17H3C3 17.5523 3.44772 18 4 18V17ZM20 17V18C20.5523 18 21 17.5523 21 17H20ZM20 16H21C21 15.8448 20.9639 15.6916 20.8944 15.5528L20 16ZM18.5 13L17.5012 13.0499C17.5082 13.1882 17.5437 13.3234 17.6056 13.4472L18.5 13ZM18.2996 8.99251L17.3009 9.04245V9.04245L18.2996 8.99251ZM5.70037 8.99251L6.69913 9.04245L5.70037 8.99251ZM5.5 13L6.39443 13.4472C6.45632 13.3234 6.49184 13.1882 6.49875 13.0499L5.5 13ZM4 16L3.10557 15.5528C3.03615 15.6916 3 15.8448 3 16H4ZM10.5 7.5C9.94772 7.5 9.5 7.94772 9.5 8.5C9.5 9.05228 9.94772 9.5 10.5 9.5V7.5ZM13.5 8.5L14.3 9.1C14.5273 8.79698 14.5638 8.39157 14.3944 8.05279C14.225 7.714 13.8788 7.5 13.5 7.5V8.5ZM10.5 12.5L9.7 11.9C9.47274 12.203 9.43618 12.6084 9.60557 12.9472C9.77496 13.286 10.1212 13.5 10.5 13.5V12.5ZM13.5 13.5C14.0523 13.5 14.5 13.0523 14.5 12.5C14.5 11.9477 14.0523 11.5 13.5 11.5V13.5ZM15 17C15 18.6569 13.6569 20 12 20V22C14.7614 22 17 19.7614 17 17H15ZM12 20C10.3431 20 9 18.6569 9 17H7C7 19.7614 9.23858 22 12 22V20ZM4 18H20V16H4V18ZM21 17V16H19V17H21ZM20.8944 15.5528L19.3944 12.5528L17.6056 13.4472L19.1056 16.4472L20.8944 15.5528ZM19.4988 12.9501L19.2984 8.94258L17.3009 9.04245L17.5012 13.0499L19.4988 12.9501ZM4.70162 8.94258L4.50125 12.9501L6.49875 13.0499L6.69913 9.04245L4.70162 8.94258ZM4.60557 12.5528L3.10557 15.5528L4.89443 16.4472L6.39443 13.4472L4.60557 12.5528ZM3 16V17H5V16H3ZM12 2C8.10602 2 4.89608 5.05346 4.70162 8.94258L6.69913 9.04245C6.84036 6.21775 9.17177 4 12 4V2ZM19.2984 8.94258C19.1039 5.05346 15.894 2 12 2V4C14.8282 4 17.1596 6.21775 17.3009 9.04245L19.2984 8.94258ZM10.5 9.5H13.5V7.5H10.5V9.5ZM12.7 7.9L9.7 11.9L11.3 13.1L14.3 9.1L12.7 7.9ZM10.5 13.5H13.5V11.5H10.5V13.5Z" fill="black"/>
</svg>
