<svg width="24" height="24" viewBox="0 0 24 24" fill="none" xmlns="http://www.w3.org/2000/svg">
<path d="M3 7H9.5M21 7H14.5M9.5 7.39838C6.45735 8.39845 4.22045 11.1743 4.01537 14.5M14.5 7.39838C17.5426 8.39845 19.7795 11.1743 19.9846 14.5M4 7C4 7.55228 3.55228 8 3 8C2.44772 8 2 7.55228 2 7C2 6.44772 2.44772 6 3 6C3.55228 6 4 6.44772 4 7ZM22 7C22 7.55228 21.5523 8 21 8C20.4477 8 20 7.55228 20 7C20 6.44772 20.4477 6 21 6C21.5523 6 22 6.44772 22 7ZM10 5H14V9H10V5ZM18 15H22V19H18V15ZM2 15V19H6V15H2Z" stroke="black" stroke-width="2" stroke-linecap="round" stroke-linejoin="round"/>
</svg>
