<svg width="24" height="24" viewBox="0 0 24 24" fill="none" xmlns="http://www.w3.org/2000/svg">
<path d="M4 4V3C3.44772 3 3 3.44772 3 4H4ZM20 4H21C21 3.44772 20.5523 3 20 3V4ZM20 20V21C20.5523 21 21 20.5523 21 20H20ZM4 20H3C3 20.5523 3.44772 21 4 21V20ZM16 9.00005C16.5523 9.00005 17 8.55234 17 8.00005C17 7.44777 16.5523 7.00005 16 7.00005V9.00005ZM15.95 8.00005V7.00005H15.9498L15.95 8.00005ZM8 15.0001C7.44772 15.0001 7 15.4478 7 16.0001C7 16.5523 7.44772 17.0001 8 17.0001V15.0001ZM4 5H20V3H4V5ZM19 4V20H21V4H19ZM20 19H4V21H20V19ZM5 20V4H3V20H5ZM16 7.00005H15.95V9.00005H16V7.00005ZM15.9498 7.00005C14.5703 7.00039 13.5758 7.72909 12.8458 8.61419C12.1404 9.46945 11.5907 10.5817 11.1053 11.5536C10.592 12.5816 10.1431 13.4692 9.6113 14.1139C9.10416 14.7287 8.62312 15.0001 8.05 15.0001V17.0001C9.4295 17.0001 10.4241 16.2715 11.1542 15.3865C11.8595 14.5313 12.4093 13.4191 12.8947 12.4472C13.408 11.4192 13.8569 10.5315 14.3888 9.88671C14.8959 9.27173 15.3771 9.00019 15.9502 9.00005L15.9498 7.00005ZM8.05 15.0001H8V17.0001H8.05V15.0001Z" fill="black"/>
</svg>
