<svg width="24" height="24" viewBox="0 0 24 24" fill="none" xmlns="http://www.w3.org/2000/svg">
<path d="M19 21.0001V22.0001C19.5523 22.0001 20 21.5523 20 21.0001H19ZM5 21.0001H4C4 21.5523 4.44772 22.0001 5 22.0001V21.0001ZM12.0003 2.17163L12.7074 1.46452C12.5199 1.27699 12.2655 1.17163 12.0003 1.17163C11.7351 1.17163 11.4807 1.27699 11.2932 1.46452L12.0003 2.17163ZM13.4145 3.58584L12.7074 4.29295V4.29295L13.4145 3.58584ZM10.5861 3.58584L9.87898 2.87874V2.87874L10.5861 3.58584ZM13 7.00006C13 6.44777 12.5523 6.00006 12 6.00006C11.4477 6.00006 11 6.44777 11 7.00006H13ZM11 10.0001C11 10.5523 11.4477 11.0001 12 11.0001C12.5523 11.0001 13 10.5523 13 10.0001H11ZM7 16.0001L6.62861 16.9285C6.86702 17.0239 7.13298 17.0239 7.37139 16.9285L7 16.0001ZM9.5 15.0001L9.87139 14.0716C9.63298 13.9762 9.36702 13.9762 9.12861 14.0716L9.5 15.0001ZM12 16.0001L11.6286 16.9285C11.867 17.0239 12.133 17.0239 12.3714 16.9285L12 16.0001ZM14.5 15.0001L14.8714 14.0716C14.633 13.9762 14.367 13.9762 14.1286 14.0716L14.5 15.0001ZM19.5 15.0001L19.8714 15.9285C20.251 15.7767 20.5 15.409 20.5 15.0001H19.5ZM19.5 10.0001H20.5C20.5 9.44777 20.0523 9.00006 19.5 9.00006V10.0001ZM4.5 10.0001V9.00006C3.94772 9.00006 3.5 9.44777 3.5 10.0001H4.5ZM4.5 15.0001H3.5C3.5 15.409 3.74895 15.7767 4.12861 15.9285L4.5 15.0001ZM17 16.0001L16.6286 16.9285C16.867 17.0239 17.133 17.0239 17.3714 16.9285L17 16.0001ZM18 15.5001V21.0001H20V15.5001H18ZM19 20.0001H5V22.0001H19V20.0001ZM6 21.0001V15.5001H4V21.0001H6ZM11.2932 4.29295L12.7074 2.87874L11.2932 1.46452L9.87898 2.87874L11.2932 4.29295ZM11.2932 2.87874L12.7074 4.29295L14.1216 2.87874L12.7074 1.46452L11.2932 2.87874ZM12.7074 5.70717C12.3169 6.09769 11.6837 6.09769 11.2932 5.70717L9.87898 7.12138C11.0506 8.29295 12.95 8.29295 14.1216 7.12138L12.7074 5.70717ZM12.7074 4.29295C13.0979 4.68348 13.0979 5.31664 12.7074 5.70717L14.1216 7.12138C15.2932 5.94981 15.2932 4.05031 14.1216 2.87874L12.7074 4.29295ZM9.87898 2.87874C8.70741 4.05031 8.70741 5.94981 9.87898 7.12138L11.2932 5.70717C10.9027 5.31664 10.9027 4.68348 11.2932 4.29295L9.87898 2.87874ZM11 7.00006V10.0001H13V7.00006H11ZM7.37139 16.9285L9.87139 15.9285L9.12861 14.0716L6.62861 15.0716L7.37139 16.9285ZM9.12861 15.9285L11.6286 16.9285L12.3714 15.0716L9.87139 14.0716L9.12861 15.9285ZM12.3714 16.9285L14.8714 15.9285L14.1286 14.0716L11.6286 15.0716L12.3714 16.9285ZM20.5 15.0001V10.0001H18.5V15.0001H20.5ZM19.5 9.00006H4.5V11.0001H19.5V9.00006ZM3.5 10.0001V15.0001H5.5V10.0001H3.5ZM4.12861 15.9285L6.62861 16.9285L7.37139 15.0716L4.87139 14.0716L4.12861 15.9285ZM14.1286 15.9285L16.6286 16.9285L17.3714 15.0716L14.8714 14.0716L14.1286 15.9285ZM17.3714 16.9285L19.8714 15.9285L19.1286 14.0716L16.6286 15.0716L17.3714 16.9285Z" fill="black"/>
</svg>
