<svg width="24" height="24" viewBox="0 0 24 24" fill="none" xmlns="http://www.w3.org/2000/svg">
<path d="M19 3H20C20 2.44772 19.5523 2 19 2V3ZM19 21L18.5039 21.8682C18.8134 22.0451 19.1936 22.0438 19.5019 21.8649C19.8102 21.686 20 21.3565 20 21H19ZM5 21H4C4 21.3565 4.18976 21.686 4.49807 21.8649C4.80639 22.0438 5.18664 22.0451 5.49614 21.8682L5 21ZM5 3V2C4.44772 2 4 2.44772 4 3H5ZM12 17L12.4961 16.1318C12.1887 15.9561 11.8113 15.9561 11.5039 16.1318L12 17ZM10.2071 9.54289C9.81658 9.15237 9.18342 9.15237 8.79289 9.54289C8.40237 9.93342 8.40237 10.5666 8.79289 10.9571L10.2071 9.54289ZM11 11.75L10.2929 12.4571C10.6834 12.8476 11.3166 12.8476 11.7071 12.4571L11 11.75ZM15.2071 8.95711C15.5976 8.56658 15.5976 7.93342 15.2071 7.54289C14.8166 7.15237 14.1834 7.15237 13.7929 7.54289L15.2071 8.95711ZM18 3V21H20V3H18ZM6 21V3H4V21H6ZM5 4H19V2H5V4ZM19.4961 20.1318L12.4961 16.1318L11.5039 17.8682L18.5039 21.8682L19.4961 20.1318ZM11.5039 16.1318L4.50386 20.1318L5.49614 21.8682L12.4961 17.8682L11.5039 16.1318ZM8.79289 10.9571L10.2929 12.4571L11.7071 11.0429L10.2071 9.54289L8.79289 10.9571ZM11.7071 12.4571L15.2071 8.95711L13.7929 7.54289L10.2929 11.0429L11.7071 12.4571Z" fill="black"/>
</svg>
