<svg width="24" height="24" viewBox="0 0 24 24" fill="none" xmlns="http://www.w3.org/2000/svg">
<path d="M19 3H20C20 2.44772 19.5523 2 19 2V3ZM19 21L18.5039 21.8682C18.8134 22.0451 19.1936 22.0438 19.5019 21.8649C19.8102 21.686 20 21.3565 20 21H19ZM5 21H4C4 21.3565 4.18976 21.686 4.49807 21.8649C4.80639 22.0438 5.18664 22.0451 5.49614 21.8682L5 21ZM5 3V2C4.44772 2 4 2.44772 4 3H5ZM12 17L12.4961 16.1318C12.1887 15.9561 11.8113 15.9561 11.5039 16.1318L12 17ZM14.8284 8.5858C15.219 8.19528 15.219 7.56211 14.8284 7.17159C14.4379 6.78106 13.8048 6.78106 13.4142 7.17159L14.8284 8.5858ZM9.17159 11.4142C8.78107 11.8048 8.78107 12.4379 9.17159 12.8284C9.56211 13.219 10.1953 13.219 10.5858 12.8284L9.17159 11.4142ZM13.4142 12.8284C13.8048 13.2189 14.4379 13.2189 14.8284 12.8284C15.219 12.4379 15.219 11.8047 14.8284 11.4142L13.4142 12.8284ZM10.5858 7.17156C10.1953 6.78104 9.56212 6.78104 9.17159 7.17156C8.78107 7.56208 8.78107 8.19525 9.17159 8.58577L10.5858 7.17156ZM18 3V21H20V3H18ZM6 21V3H4V21H6ZM5 4H19V2H5V4ZM19.4961 20.1318L12.4961 16.1318L11.5039 17.8682L18.5039 21.8682L19.4961 20.1318ZM11.5039 16.1318L4.50386 20.1318L5.49614 21.8682L12.4961 17.8682L11.5039 16.1318ZM13.4142 7.17159L9.17159 11.4142L10.5858 12.8284L14.8284 8.5858L13.4142 7.17159ZM14.8284 11.4142L10.5858 7.17156L9.17159 8.58577L13.4142 12.8284L14.8284 11.4142Z" fill="black"/>
</svg>
