<svg width="24" height="24" viewBox="0 0 24 24" fill="none" xmlns="http://www.w3.org/2000/svg">
<path d="M19 3H20C20 2.44772 19.5523 2 19 2V3ZM19 21L18.5039 21.8682C18.8134 22.0451 19.1936 22.0438 19.5019 21.8649C19.8102 21.686 20 21.3565 20 21H19ZM5 21H4C4 21.3565 4.18976 21.686 4.49807 21.8649C4.80639 22.0438 5.18664 22.0451 5.49614 21.8682L5 21ZM5 3V2C4.44772 2 4 2.44772 4 3H5ZM12 17L12.4961 16.1318C12.1887 15.9561 11.8113 15.9561 11.5039 16.1318L12 17ZM13 7C13 6.44772 12.5523 6 12 6C11.4477 6 11 6.44772 11 7H13ZM11 13C11 13.5523 11.4477 14 12 14C12.5523 14 13 13.5523 13 13H11ZM15 11C15.5523 11 16 10.5523 16 10C16 9.44772 15.5523 9 15 9V11ZM9 9C8.44772 9 8 9.44771 8 10C8 10.5523 8.44772 11 9 11V9ZM18 3V21H20V3H18ZM6 21V3H4V21H6ZM5 4H19V2H5V4ZM19.4961 20.1318L12.4961 16.1318L11.5039 17.8682L18.5039 21.8682L19.4961 20.1318ZM11.5039 16.1318L4.50386 20.1318L5.49614 21.8682L12.4961 17.8682L11.5039 16.1318ZM11 7V13H13V7H11ZM15 9L9 9V11L15 11V9Z" fill="black"/>
</svg>
