<svg width="24" height="24" viewBox="0 0 24 24" fill="none" xmlns="http://www.w3.org/2000/svg">
<path d="M5 3V2C4.44772 2 4 2.44772 4 3H5ZM19 3H20C20 2.44772 19.5523 2 19 2V3ZM19 21L18.5039 21.8682C18.8134 22.0451 19.1936 22.0438 19.5019 21.8649C19.8102 21.686 20 21.3565 20 21H19ZM12 17L12.4961 16.1318C12.1887 15.9561 11.8113 15.9561 11.5039 16.1318L12 17ZM5 21H4C4 21.3565 4.18976 21.686 4.49807 21.8649C4.80639 22.0438 5.18664 22.0451 5.49614 21.8682L5 21ZM4 13.95C4 14.5023 4.44772 14.95 5 14.95C5.55228 14.95 6 14.5023 6 13.95H4ZM6 19C6 18.4477 5.55228 18 5 18C4.44772 18 4 18.4477 4 19H6ZM20 14C20 13.4477 19.5523 13 19 13C18.4477 13 18 13.4477 18 14H20ZM18 9.05C18 9.60228 18.4477 10.05 19 10.05C19.5523 10.05 20 9.60228 20 9.05H18ZM1.66965 14.0561C1.14837 14.2386 0.873694 14.8091 1.05614 15.3304C1.23859 15.8516 1.80907 16.1263 2.33035 15.9439L1.66965 14.0561ZM22.3304 8.94386C22.8516 8.76141 23.1263 8.19093 22.9439 7.66965C22.7614 7.14837 22.1909 6.87369 21.6696 7.05614L22.3304 8.94386ZM5 4H19V2H5V4ZM19.4961 20.1318L12.4961 16.1318L11.5039 17.8682L18.5039 21.8682L19.4961 20.1318ZM11.5039 16.1318L4.50386 20.1318L5.49614 21.8682L12.4961 17.8682L11.5039 16.1318ZM6 13.95V3H4V13.95H6ZM6 21V19H4V21H6ZM18 14V21H20V14H18ZM18 3V9.05H20V3H18ZM2.33035 15.9439L22.3304 8.94386L21.6696 7.05614L1.66965 14.0561L2.33035 15.9439Z" fill="black"/>
</svg>
