<svg width="24" height="24" viewBox="0 0 24 24" fill="none" xmlns="http://www.w3.org/2000/svg">
<path d="M13.0312 3.29785C13.1764 3.58814 13.4119 3.8236 13.7021 3.96875L13.7637 4L13.7021 4.03125C13.4482 4.15824 13.2361 4.35422 13.0898 4.5957L13.0312 4.70215L13 4.76367L12.9688 4.70215L12.9102 4.5957C12.7639 4.35422 12.5518 4.15824 12.2979 4.03125L12.2354 4L12.2979 3.96875C12.5881 3.8236 12.8236 3.58814 12.9688 3.29785L13 3.23535L13.0312 3.29785Z" stroke="black" stroke-width="2" stroke-linecap="square" stroke-linejoin="round"/>
<path d="M7.5 5.19238C7.58574 5.31014 7.68894 5.41419 7.80664 5.5C7.68915 5.58565 7.58565 5.68915 7.5 5.80664C7.41419 5.68894 7.31014 5.58574 7.19238 5.5C7.31035 5.4141 7.4141 5.31035 7.5 5.19238Z" stroke="black" stroke-width="2" stroke-linecap="square" stroke-linejoin="round"/>
<path d="M5 10H19V21H5V10Z" stroke="black" stroke-width="2" stroke-linecap="round" stroke-linejoin="round"/>
<path d="M10 14H14" stroke="black" stroke-width="2" stroke-linecap="round" stroke-linejoin="round"/>
<path d="M18.9998 5L16.2998 9.5" stroke="black" stroke-width="2" stroke-linecap="round" stroke-linejoin="round"/>
</svg>
