<svg width="24" height="24" viewBox="0 0 24 24" fill="none" xmlns="http://www.w3.org/2000/svg">
<path d="M3.00195 18.0358H2.00195C2.00195 18.5881 2.44967 19.0358 3.00195 19.0358V18.0358ZM3.00195 4.00003L3.00195 3.00003C2.44967 3.00003 2.00195 3.44774 2.00195 4.00003H3.00195ZM21.002 18.0357L21.002 19.0357C21.5542 19.0357 22.002 18.588 22.002 18.0357H21.002ZM15.0153 18.0358L15.0153 17.0358C14.7823 17.0358 14.5567 17.1171 14.3773 17.2657L15.0153 18.0358ZM11.9977 20.5358L11.3553 21.3021C11.7252 21.6123 12.2639 21.6138 12.6357 21.3058L11.9977 20.5358ZM9.01526 18.0358L9.65766 17.2694C9.47762 17.1185 9.25019 17.0358 9.01526 17.0358V18.0358ZM12.002 5.00001C12.5542 5.00001 13.002 4.5523 13.002 4.00001C13.002 3.44773 12.5542 3.00001 12.002 3.00001L12.002 5.00001ZM22.002 13.0179C22.002 12.4656 21.5542 12.0179 21.002 12.0179C20.4497 12.0179 20.002 12.4656 20.002 13.0179H22.002ZM4.00195 18.0358V4.00003H2.00195V18.0358H4.00195ZM21.0019 17.0357L15.0153 17.0358L15.0153 19.0358L21.002 19.0357L21.0019 17.0357ZM14.3773 17.2657L11.3597 19.7657L12.6357 21.3058L15.6532 18.8058L14.3773 17.2657ZM12.6401 19.7694L9.65766 17.2694L8.37286 18.8021L11.3553 21.3021L12.6401 19.7694ZM9.01526 17.0358H3.00195V19.0358H9.01526V17.0358ZM3.00195 5.00003L12.002 5.00001L12.002 3.00001L3.00195 3.00003L3.00195 5.00003ZM20.002 13.0179V18.0357H22.002V13.0179H20.002ZM20.9998 6C20.9998 7.10457 20.1043 8 18.9998 8V10C21.2089 10 22.9998 8.20914 22.9998 6H20.9998ZM18.9998 8C17.8952 8 16.9998 7.10457 16.9998 6H14.9998C14.9998 8.20914 16.7906 10 18.9998 10V8ZM16.9998 6C16.9998 4.89543 17.8952 4 18.9998 4V2C16.7906 2 14.9998 3.79086 14.9998 6H16.9998ZM18.9998 4C20.1043 4 20.9998 4.89543 20.9998 6H22.9998C22.9998 3.79086 21.2089 2 18.9998 2V4Z" fill="black"/>
</svg>
