<svg width="24" height="24" viewBox="0 0 24 24" fill="none" xmlns="http://www.w3.org/2000/svg">
<path d="M20.002 4H4.00195V21.5L8.00195 19H20.002V4Z" stroke="black" stroke-width="2" stroke-linecap="square" stroke-linejoin="round"/>
<path d="M8 10.625C8.48325 10.625 8.875 11.0168 8.875 11.5C8.875 11.9832 8.48325 12.375 8 12.375C7.51675 12.375 7.125 11.9832 7.125 11.5C7.125 11.0168 7.51675 10.625 8 10.625ZM12 10.625C12.4832 10.625 12.875 11.0168 12.875 11.5C12.875 11.9832 12.4832 12.375 12 12.375C11.5168 12.375 11.125 11.9832 11.125 11.5C11.125 11.0168 11.5168 10.625 12 10.625ZM16 10.625C16.4832 10.625 16.875 11.0168 16.875 11.5C16.875 11.9832 16.4832 12.375 16 12.375C15.5168 12.375 15.125 11.9832 15.125 11.5C15.125 11.0168 15.5168 10.625 16 10.625Z" fill="black" stroke="black" stroke-width="0.75" stroke-linecap="square"/>
</svg>
