<svg width="24" height="24" viewBox="0 0 24 24" fill="none" xmlns="http://www.w3.org/2000/svg">
<path d="M12 21C16.9706 21 21 16.9706 21 12C21 7.02944 16.9706 3 12 3C7.02944 3 3 7.02944 3 12C3 13.4876 3.36093 14.891 4 16.1272L3 21L8 20.0645C9.20496 20.6633 10.5632 21 12 21Z" stroke="black" stroke-width="2" stroke-linecap="round" stroke-linejoin="round"/>
<path d="M7.5 11.125C7.98325 11.125 8.375 11.5168 8.375 12C8.375 12.4832 7.98325 12.875 7.5 12.875C7.01675 12.875 6.625 12.4832 6.625 12C6.625 11.5168 7.01675 11.125 7.5 11.125ZM12 11.125C12.4832 11.125 12.875 11.5168 12.875 12C12.875 12.4832 12.4832 12.875 12 12.875C11.5168 12.875 11.125 12.4832 11.125 12C11.125 11.5168 11.5168 11.125 12 11.125ZM16.5 11.125C16.9832 11.125 17.375 11.5168 17.375 12C17.375 12.4832 16.9832 12.875 16.5 12.875C16.0168 12.875 15.625 12.4832 15.625 12C15.625 11.5168 16.0168 11.125 16.5 11.125Z" fill="black" stroke="black" stroke-width="0.75" stroke-linecap="square"/>
</svg>
