<svg width="24" height="24" viewBox="0 0 24 24" fill="none" xmlns="http://www.w3.org/2000/svg">
<path d="M4.00195 4.00003L4.00195 3.00003C3.44967 3.00003 3.00195 3.44774 3.00195 4.00003H4.00195ZM20.002 4H21.002C21.002 3.73478 20.8966 3.48043 20.7091 3.29289C20.5215 3.10536 20.2672 3 20.002 3L20.002 4ZM20.002 18.0357L20.002 19.0357C20.5542 19.0357 21.002 18.588 21.002 18.0357H20.002ZM4.00195 18.0358H3.00195C3.00195 18.5881 3.44967 19.0358 4.00195 19.0358V18.0358ZM11.9977 20.5358L11.3553 21.3021C11.7252 21.6123 12.2639 21.6138 12.6357 21.3058L11.9977 20.5358ZM15.0153 18.0358L15.0153 17.0358C14.7823 17.0358 14.5567 17.1171 14.3773 17.2657L15.0153 18.0358ZM9.01526 18.0358L9.65766 17.2694C9.47762 17.1185 9.25019 17.0358 9.01526 17.0358V18.0358ZM11.0329 11.5148C10.9508 12.0609 11.3271 12.5702 11.8733 12.6522C12.4194 12.7342 12.9287 12.358 13.0107 11.8118L11.0329 11.5148ZM12.8813 10.3635L13.4434 11.1906L13.4435 11.1905L12.8813 10.3635ZM9.6234 9.17764C9.6234 9.72993 10.0711 10.1776 10.6234 10.1776C11.1757 10.1776 11.6234 9.72993 11.6234 9.17764H9.6234ZM4.00195 5.00003L20.002 5L20.002 3L4.00195 3.00003L4.00195 5.00003ZM19.002 4V18.0357H21.002V4H19.002ZM5.00195 18.0358V4.00003H3.00195V18.0358H5.00195ZM20.0019 17.0357L15.0153 17.0358L15.0153 19.0358L20.002 19.0357L20.0019 17.0357ZM14.3773 17.2657L11.3597 19.7657L12.6357 21.3058L15.6532 18.8058L14.3773 17.2657ZM12.6401 19.7694L9.65766 17.2694L8.37286 18.8021L11.3553 21.3021L12.6401 19.7694ZM9.01526 17.0358H4.00195V19.0358H9.01526V17.0358ZM13.0107 11.8118C13.0368 11.6377 13.092 11.5308 13.1499 11.4531C13.2138 11.3671 13.3053 11.2844 13.4434 11.1906L12.3192 9.53647C11.8111 9.8818 11.1912 10.4604 11.0329 11.5148L13.0107 11.8118ZM13.4435 11.1905C13.8798 10.894 14.6234 10.3056 14.6234 9.17764H12.6234C12.6234 9.22485 12.6166 9.25033 12.6124 9.26257C12.6081 9.27526 12.6011 9.29023 12.5859 9.3108C12.5488 9.36132 12.4762 9.42971 12.3191 9.53653L13.4435 11.1905ZM14.6234 9.17764C14.6234 7.79765 13.5134 6.66329 12.1234 6.66329V8.66329C12.3909 8.66329 12.6234 8.88422 12.6234 9.17764H14.6234ZM12.1234 6.66329C10.7334 6.66329 9.6234 7.79765 9.6234 9.17764H11.6234C11.6234 8.88422 11.8559 8.66329 12.1234 8.66329V6.66329Z" fill="black"/>
<path d="M12 13.625C12.4832 13.625 12.875 14.0168 12.875 14.5C12.875 14.9832 12.4832 15.375 12 15.375C11.5168 15.375 11.125 14.9832 11.125 14.5C11.125 14.0168 11.5168 13.625 12 13.625Z" fill="black" stroke="black" stroke-width="0.75"/>
</svg>
