<svg width="24" height="24" viewBox="0 0 24 24" fill="none" xmlns="http://www.w3.org/2000/svg">
<path d="M4.00195 4.00003L20.002 4V18.0357L15.0153 18.0358L11.9977 20.5358L9.01526 18.0358H4.00195V4.00003Z" stroke="black" stroke-width="2" stroke-linejoin="round"/>
<path d="M12.5714 7.57143C12.5714 7.25584 12.3156 7 12 7C11.6844 7 11.4286 7.25584 11.4286 7.57143C11.4286 8.69215 11.1803 9.36869 10.7745 9.77451C10.3687 10.1803 9.69215 10.4286 8.57143 10.4286C8.25584 10.4286 8 10.6844 8 11C8 11.3156 8.25584 11.5714 8.57143 11.5714C9.69215 11.5714 10.3687 11.8197 10.7745 12.2255C11.1803 12.6313 11.4286 13.3079 11.4286 14.4286C11.4286 14.7442 11.6844 15 12 15C12.3156 15 12.5714 14.7442 12.5714 14.4286C12.5714 13.3079 12.8197 12.6313 13.2255 12.2255C13.6313 11.8197 14.3079 11.5714 15.4286 11.5714C15.7442 11.5714 16 11.3156 16 11C16 10.6844 15.7442 10.4286 15.4286 10.4286C14.3079 10.4286 13.6313 10.1803 13.2255 9.77451C12.8197 9.36869 12.5714 8.69215 12.5714 7.57143Z" fill="black"/>
</svg>
