<svg width="24" height="24" viewBox="0 0 24 24" fill="none" xmlns="http://www.w3.org/2000/svg">
<path d="M3.00195 4.00003L21.002 4V18.0357L15.0153 18.0358L11.9977 20.5358L9.01526 18.0358H3.00195L3.00195 4.00003Z" stroke="black" stroke-width="2" stroke-linejoin="round"/>
<path d="M7.5 10.125C7.98325 10.125 8.375 10.5168 8.375 11C8.375 11.4832 7.98325 11.875 7.5 11.875C7.01675 11.875 6.625 11.4832 6.625 11C6.625 10.5168 7.01675 10.125 7.5 10.125ZM12 10.125C12.4832 10.125 12.875 10.5168 12.875 11C12.875 11.4832 12.4832 11.875 12 11.875C11.5168 11.875 11.125 11.4832 11.125 11C11.125 10.5168 11.5168 10.125 12 10.125ZM16.5 10.125C16.9832 10.125 17.375 10.5168 17.375 11C17.375 11.4832 16.9832 11.875 16.5 11.875C16.0168 11.875 15.625 11.4832 15.625 11C15.625 10.5168 16.0168 10.125 16.5 10.125Z" fill="black" stroke="black" stroke-width="0.75" stroke-linecap="square"/>
</svg>
