<svg width="24" height="24" viewBox="0 0 24 24" fill="none" xmlns="http://www.w3.org/2000/svg">
<path d="M4.00195 4.00003L20.002 4V18.0357L15.0153 18.0358L11.9977 20.5358L9.01526 18.0358H4.00195V4.00003Z" stroke="black" stroke-width="2" stroke-linejoin="round"/>
<path d="M7.75 10.375C8.23325 10.375 8.625 10.7668 8.625 11.25C8.625 11.7332 8.23325 12.125 7.75 12.125C7.26675 12.125 6.875 11.7332 6.875 11.25C6.875 10.7668 7.26675 10.375 7.75 10.375ZM12 10.375C12.4832 10.375 12.875 10.7668 12.875 11.25C12.875 11.7332 12.4832 12.125 12 12.125C11.5168 12.125 11.125 11.7332 11.125 11.25C11.125 10.7668 11.5168 10.375 12 10.375ZM16.25 10.375C16.7332 10.375 17.125 10.7668 17.125 11.25C17.125 11.7332 16.7332 12.125 16.25 12.125C15.7668 12.125 15.375 11.7332 15.375 11.25C15.375 10.7668 15.7668 10.375 16.25 10.375Z" fill="black" stroke="black" stroke-width="0.75" stroke-linecap="square"/>
</svg>
