<svg width="24" height="24" viewBox="0 0 24 24" fill="none" xmlns="http://www.w3.org/2000/svg">
<path d="M20 20V21C20.5523 21 21 20.5523 21 20H20ZM4 20H3C3 20.5523 3.44772 21 4 21V20ZM4 16V15C3.44772 15 3 15.4477 3 16H4ZM20 16H21C21 15.4477 20.5523 15 20 15V16ZM3 12V11C2.44772 11 2 11.4477 2 12H3ZM21 12H22C22 11.4477 21.5523 11 21 11V12ZM21 16V17C21.5523 17 22 16.5523 22 16H21ZM3 16H2C2 16.5523 2.44772 17 3 17V16ZM4 12H3C3 12.5523 3.44772 13 4 13V12ZM20 12V13C20.5523 13 21 12.5523 21 12H20ZM20 19H4V21H20V19ZM5 20V16H3V20H5ZM4 17H20V15H4V17ZM19 16V20H21V16H19ZM3 13H21V11H3V13ZM20 12V16H22V12H20ZM21 15H3V17H21V15ZM4 16V12H2V16H4ZM12 5C13.1627 5 14.9667 5.33865 16.4462 6.27692C17.876 7.18367 19 8.6371 19 11H21C21 7.84935 19.433 5.80279 17.5173 4.58792C15.6513 3.40458 13.4553 3 12 3V5ZM5 11C5 8.6371 6.12399 7.18366 7.5538 6.27692C9.03333 5.33865 10.8373 5 12 5V3C10.5447 3 8.34866 3.40458 6.48269 4.58792C4.56701 5.80279 3 7.84935 3 11H5ZM3 11V12H5V11H3ZM21 12V11H19V12H21ZM4 13H20V11H4V13Z" fill="black"/>
</svg>
