<svg width="24" height="24" viewBox="0 0 24 24" fill="none" xmlns="http://www.w3.org/2000/svg">
<path d="M7 11C6.44772 11 6 11.4477 6 12C6 12.5523 6.44772 13 7 13V11ZM17 13C17.5523 13 18 12.5523 18 12C18 11.4477 17.5523 11 17 11V13ZM22 7H23C23 6.44772 22.5523 6 22 6V7ZM22 17V18C22.5523 18 23 17.5523 23 17H22ZM16 16C15.4477 16 15 16.4477 15 17C15 17.5523 15.4477 18 16 18V16ZM16 6C15.4477 6 15 6.44772 15 7C15 7.55228 15.4477 8 16 8V6ZM2 7V6C1.44772 6 1 6.44772 1 7H2ZM2 17H1C1 17.5523 1.44772 18 2 18V17ZM8 18C8.55228 18 9 17.5523 9 17C9 16.4477 8.55228 16 8 16V18ZM8 8C8.55228 8 9 7.55228 9 7C9 6.44772 8.55228 6 8 6V8ZM7 13H17V11H7V13ZM21 7V17H23V7H21ZM22 16H16V18H22V16ZM16 8H22V6H16V8ZM1 7V17H3V7H1ZM2 18H8V16H2V18ZM8 6H2V8H8V6Z" fill="black"/>
</svg>
