<svg width="24" height="24" viewBox="0 0 24 24" fill="none" xmlns="http://www.w3.org/2000/svg">
<path d="M2.5 14.5L1.79289 13.7929C1.40237 14.1834 1.40237 14.8166 1.79289 15.2071L2.5 14.5ZM9.5 21.5L8.79289 22.2071C9.18342 22.5976 9.81658 22.5976 10.2071 22.2071L9.5 21.5ZM21.5 9.5L22.2071 10.2071C22.5976 9.81658 22.5976 9.18342 22.2071 8.79289L21.5 9.5ZM14.5 2.5L15.2071 1.79289C14.8166 1.40237 14.1834 1.40237 13.7929 1.79289L14.5 2.5ZM10.2929 5.29289C9.90237 5.68342 9.90237 6.31658 10.2929 6.70711C10.6834 7.09763 11.3166 7.09763 11.7071 6.70711L10.2929 5.29289ZM6.70711 11.7071C7.09763 11.3166 7.09763 10.6834 6.70711 10.2929C6.31658 9.90237 5.68342 9.90237 5.29289 10.2929L6.70711 11.7071ZM17.2929 12.2929C16.9024 12.6834 16.9024 13.3166 17.2929 13.7071C17.6834 14.0976 18.3166 14.0976 18.7071 13.7071L17.2929 12.2929ZM13.7071 18.7071C14.0976 18.3166 14.0976 17.6834 13.7071 17.2929C13.3166 16.9024 12.6834 16.9024 12.2929 17.2929L13.7071 18.7071ZM8.29289 14.2929C7.90237 14.6834 7.90237 15.3166 8.29289 15.7071C8.68342 16.0976 9.31658 16.0976 9.70711 15.7071L8.29289 14.2929ZM15.7071 9.70711C16.0976 9.31658 16.0976 8.68342 15.7071 8.29289C15.3166 7.90237 14.6834 7.90237 14.2929 8.29289L15.7071 9.70711ZM1.79289 15.2071L8.79289 22.2071L10.2071 20.7929L3.20711 13.7929L1.79289 15.2071ZM22.2071 8.79289L15.2071 1.79289L13.7929 3.20711L20.7929 10.2071L22.2071 8.79289ZM13.7929 1.79289L10.2929 5.29289L11.7071 6.70711L15.2071 3.20711L13.7929 1.79289ZM5.29289 10.2929L1.79289 13.7929L3.20711 15.2071L6.70711 11.7071L5.29289 10.2929ZM18.7071 13.7071L22.2071 10.2071L20.7929 8.79289L17.2929 12.2929L18.7071 13.7071ZM10.2071 22.2071L13.7071 18.7071L12.2929 17.2929L8.79289 20.7929L10.2071 22.2071ZM9.70711 15.7071L15.7071 9.70711L14.2929 8.29289L8.29289 14.2929L9.70711 15.7071Z" fill="black"/>
</svg>
