<svg width="24" height="24" viewBox="0 0 24 24" fill="none" xmlns="http://www.w3.org/2000/svg">
<path d="M4 4V3C3.44772 3 3 3.44772 3 4H4ZM20 4H21C21 3.44772 20.5523 3 20 3V4ZM20 20V21C20.5523 21 21 20.5523 21 20H20ZM4 20H3C3 20.5523 3.44772 21 4 21V20ZM7 5.5C7 6.05228 7.44772 6.5 8 6.5C8.55228 6.5 9 6.05228 9 5.5H7ZM15 5.5V6.5H17V5.5H15ZM20 19H4V21H20V19ZM5 20V9H3V20H5ZM5 9V4H3V9H5ZM19 4V9H21V4H19ZM19 9V20H21V9H19ZM4 10H20V8H4V10ZM4 5H8V3H4V5ZM7 4V5.5H9V4H7ZM8 5H16V3H8V5ZM16 5H20V3H16V5ZM15 4V5.5H17V4H15Z" fill="black"/>
</svg>
