<svg width="24" height="24" viewBox="0 0 24 24" fill="none" xmlns="http://www.w3.org/2000/svg">
<path d="M13 12.7071V15C13 15.5522 13.4477 16 14 16H16.2929C16.7383 16 16.9614 15.4614 16.6464 15.1464L13.8536 12.3535C13.5386 12.0385 13 12.2616 13 12.7071Z" fill="black"/>
<path d="M21 21.2928V19C21 18.4477 20.5523 18 20 18H17.7071C17.2617 18 17.0386 18.5385 17.3536 18.8535L20.1464 21.6464C20.4614 21.9614 21 21.7383 21 21.2928Z" fill="black"/>
<path d="M10 20H4V9M4 9V5H20V9H4ZM8 5V3M16 5V3M19.4221 19.7188C18.7737 20.2828 17.9193 20.625 17 20.625C15.3448 20.625 13.9488 19.5157 13.5147 18M14.3725 14.4743C15.04 13.7963 15.98 13.375 17 13.375C18.6552 13.375 20.0512 14.4843 20.4853 16" stroke="black" stroke-width="2" stroke-linecap="round" stroke-linejoin="round"/>
</svg>
