<svg width="24" height="24" viewBox="0 0 24 24" fill="none" xmlns="http://www.w3.org/2000/svg">
<path fill-rule="evenodd" clip-rule="evenodd" d="M4.70711 20.7071L20.7071 4.70711C21.0976 4.31658 21.0976 3.68342 20.7071 3.29289C20.3166 2.90237 19.6834 2.90237 19.2929 3.29289L10.8369 11.7489C10.3467 11.1698 9.91043 10.5438 9.5358 9.87842L10.7071 8.70711C10.9672 8.44697 11.0635 8.06502 10.9578 7.71265L9.75783 3.71265C9.63093 3.28967 9.24161 3 8.8 3H4C3.44772 3 3 3.44772 3 4C3 8.33458 4.62226 12.2903 7.29276 15.293L3.29289 19.2929C2.90237 19.6834 2.90237 20.3166 3.29289 20.7071C3.68342 21.0976 4.31658 21.0976 4.70711 20.7071ZM8.70974 13.876L9.41854 13.1672C8.62431 12.2512 7.94705 11.231 7.40992 10.1296C7.22283 9.74603 7.29982 9.28596 7.60161 8.98417L8.87054 7.71524L8.05597 5H5.0328C5.25592 8.38977 6.60508 11.472 8.70974 13.876Z" fill="black"/>
<path d="M19 18.9672C16.3235 18.791 13.8387 17.9128 11.7281 16.515L10.2884 17.9548C13.0415 19.8743 16.3893 21 20 21C20.5523 21 21 20.5523 21 20V15.2C21 14.7584 20.7103 14.3691 20.2873 14.2422L16.2873 13.0422C15.935 12.9365 15.553 13.0328 15.2929 13.2929L14.1216 14.4642C14.0487 14.4232 13.9762 14.3814 13.9043 14.3388L12.4509 15.7922C12.9067 16.0845 13.3805 16.3512 13.8704 16.5901C14.254 16.7772 14.714 16.7002 15.0158 16.3984L16.2848 15.1295L19 15.944V18.9672Z" fill="black"/>
</svg>
