<svg width="24" height="24" viewBox="0 0 24 24" fill="none" xmlns="http://www.w3.org/2000/svg">
<path d="M5.98969 18.0104L7.3956 16.6045M5.98969 18.0104L4.53108 15.729C3.77239 14.5424 3.94139 12.9877 4.93733 11.9917L6.34324 10.5858L7.80184 12.8672C8.56054 14.0539 8.39154 15.6086 7.3956 16.6045M5.98969 18.0104L8.27119 19.469C9.45786 20.2277 11.0126 20.0587 12.0085 19.0628L13.4144 17.6569L11.133 16.1982C9.94633 15.4396 8.39154 15.6086 7.3956 16.6045M9.17169 14.8285L10.5776 13.4226M9.17169 14.8285L7.71309 12.5471C6.9544 11.3605 7.12339 9.80578 8.11934 8.80983L9.52525 7.40392L10.9839 9.68533C11.7425 10.872 11.5735 12.4267 10.5776 13.4226M9.17169 14.8285L11.4531 16.2871C12.6397 17.0458 14.1944 16.8768 15.1904 15.8809L16.5963 14.475L14.3149 13.0164C13.1282 12.2577 11.5735 12.4267 10.5776 13.4226M12.3537 11.6467L13.7596 10.2407M12.3537 11.6467L10.8951 9.36525C10.1364 8.17858 10.3054 6.62389 11.3013 5.62795L12.7073 4.22204L14.1659 6.50344C14.9245 7.69011 14.7556 9.2448 13.7596 10.2407M12.3537 11.6467L14.6351 13.1052C15.8218 13.8639 17.3764 13.6949 18.3724 12.699L19.7783 11.2931L17.4969 9.83448C16.3102 9.07579 14.7556 9.2448 13.7596 10.2407M6.34324 17.6569L4.22192 19.7782M15.1821 8.81814C14.756 5.47301 16.4332 3.79583 19.7783 4.22194C20.2044 7.56707 18.5273 9.24425 15.1821 8.81814Z" stroke="black" stroke-width="2" stroke-linecap="round" stroke-linejoin="round"/>
</svg>
