<svg width="24" height="24" viewBox="0 0 24 24" fill="none" xmlns="http://www.w3.org/2000/svg">
<path d="M4 15V14H3V15H4ZM9.33 15H10.33V14H9.33V15ZM4 20H3V21H4V20ZM9.33002 9.5V8.5C8.77773 8.5 8.33002 8.94771 8.33002 9.5L9.33002 9.5ZM14.66 9.5H15.66C15.66 8.94772 15.2123 8.5 14.66 8.5V9.5ZM14.66 4V3C14.3948 3 14.1404 3.10536 13.9529 3.29289C13.7653 3.48043 13.66 3.73479 13.66 4L14.66 4ZM19.99 4H20.99C20.99 3.44772 20.5423 3 19.99 3V4ZM19.99 20V21C20.5423 21 20.99 20.5523 20.99 20H19.99ZM2 19C1.44772 19 1 19.4477 1 20C1 20.5523 1.44772 21 2 21V19ZM22 21C22.5523 21 23 20.5523 23 20C23 19.4477 22.5523 19 22 19V21ZM4 16H9.33V14H4V16ZM8.33 15V20H10.33V15H8.33ZM9.33 19H4V21H9.33V19ZM5 20V15H3V20H5ZM9.33002 10.5H14.66V8.5H9.33002V10.5ZM13.66 9.5V20H15.66V9.5H13.66ZM14.66 19H9.33V21H14.66V19ZM10.33 20L10.33 9.5L8.33002 9.5L8.33 20L10.33 20ZM14.66 5H19.99V3H14.66V5ZM18.99 4V20H20.99V4H18.99ZM19.99 19H14.66V21H19.99V19ZM15.66 20L15.66 4L13.66 4L13.66 20L15.66 20ZM2 21H22V19H2V21Z" fill="black"/>
</svg>
