<svg width="24" height="24" viewBox="0 0 24 24" fill="none" xmlns="http://www.w3.org/2000/svg">
<path d="M16 12C15.2422 8.22782 13.0338 5.27678 10 3.00003C10.8746 6.09938 10.6531 8.74121 9 11.5" stroke="black" stroke-width="2" stroke-linecap="round" stroke-linejoin="round"/>
<path d="M21 16.25C21 19.0115 18.7614 21.0001 16 21.0001C13.2386 21.0001 11 19.0115 11 16.25C11 12.3025 13.5 11.5001 16 12.5C18.5 11.5001 21 12.3025 21 16.25Z" stroke="black" stroke-width="2" stroke-linecap="round" stroke-linejoin="round"/>
<path d="M11.9624 19.2834C10.7842 20.7607 8.77308 21.3859 6.76739 20.8485C4.10005 20.1338 2.45244 17.6335 3.16715 14.9662C4.18886 11.1531 6.81135 11.0251 8.96735 12.6381C10.0477 12.5092 11.0519 12.6647 11.7977 13.1472" stroke="black" stroke-width="2" stroke-linecap="round" stroke-linejoin="round"/>
<path d="M14.5 7H16C17.6569 7 19 5.65685 19 4V2H17C15.3431 2 14 3.34315 14 5V6" stroke="black" stroke-width="2" stroke-linecap="round" stroke-linejoin="round"/>
</svg>
