<svg width="24" height="24" viewBox="0 0 24 24" fill="none" xmlns="http://www.w3.org/2000/svg">
<path d="M11.1474 6.92023C11.6186 5.23562 13.165 4 15 4C17.2091 4 19 5.79086 19 8C19 8.72857 18.8052 9.41165 18.4649 10M9 19C5.68629 19 3 16.3137 3 13C3 9.68629 5.68629 7 9 7C9.72036 7 10.4111 7.12695 11.051 7.35969C12.5593 7.90829 13.7854 9.04468 14.4522 10.4919C15.0665 10.1774 15.7625 10 16.5 10C17.1163 10 17.7037 10.1239 18.2386 10.3482C19.8606 11.0282 21 12.631 21 14.5C21 16.9853 18.9853 19 16.5 19H9Z" stroke="black" stroke-width="2" stroke-linecap="round" stroke-linejoin="round"/>
</svg>
