<svg width="24" height="24" viewBox="0 0 24 24" fill="none" xmlns="http://www.w3.org/2000/svg">
<path d="M3 19H2C2 19.5523 2.44772 20 3 20V19ZM3 5V4C2.44772 4 2 4.44772 2 5H3ZM12 19V20C12.5523 20 13 19.5523 13 19H12ZM21 5H22C22 4.44772 21.5523 4 21 4V5ZM20 10C20 10.5523 20.4477 11 21 11C21.5523 11 22 10.5523 22 10H20ZM20 14C20 13.4477 19.5523 13 19 13C18.4477 13 18 13.4477 18 14H20ZM18 20C18 20.5523 18.4477 21 19 21C19.5523 21 20 20.5523 20 20H18ZM16 16C15.4477 16 15 16.4477 15 17C15 17.5523 15.4477 18 16 18V16ZM22 18C22.5523 18 23 17.5523 23 17C23 16.4477 22.5523 16 22 16V18ZM4 19V5H2V19H4ZM12 18H3V20H12V18ZM20 5V10H22V5H20ZM3 6H12V4H3V6ZM12 6H21V4H12V6ZM13 19V5H11V19H13ZM18 14V17H20V14H18ZM18 17V20H20V17H18ZM16 18H19V16H16V18ZM19 18H22V16H19V18Z" fill="black"/>
</svg>
