<svg width="24" height="24" viewBox="0 0 24 24" fill="none" xmlns="http://www.w3.org/2000/svg">
<path d="M3 19H2C2 19.5523 2.44772 20 3 20V19ZM3 5V4C2.44772 4 2 4.44772 2 5H3ZM12 19V20C12.5523 20 13 19.5523 13 19H12ZM21 5H22C22 4.44772 21.5523 4 21 4V5ZM20 10C20 10.5523 20.4477 11 21 11C21.5523 11 22 10.5523 22 10H20ZM17.7071 14.2929C17.3166 13.9024 16.6834 13.9024 16.2929 14.2929C15.9024 14.6834 15.9024 15.3166 16.2929 15.7071L17.7071 14.2929ZM20.2929 19.7071C20.6834 20.0976 21.3166 20.0976 21.7071 19.7071C22.0976 19.3166 22.0976 18.6834 21.7071 18.2929L20.2929 19.7071ZM16.2929 18.2929C15.9024 18.6834 15.9024 19.3166 16.2929 19.7071C16.6834 20.0976 17.3166 20.0976 17.7071 19.7071L16.2929 18.2929ZM21.7071 15.7071C22.0976 15.3166 22.0976 14.6834 21.7071 14.2929C21.3166 13.9024 20.6834 13.9024 20.2929 14.2929L21.7071 15.7071ZM4 19V5H2V19H4ZM12 18H3V20H12V18ZM20 5V10H22V5H20ZM3 6H12V4H3V6ZM12 6H21V4H12V6ZM13 19V5H11V19H13ZM16.2929 15.7071L18.2929 17.7071L19.7071 16.2929L17.7071 14.2929L16.2929 15.7071ZM18.2929 17.7071L20.2929 19.7071L21.7071 18.2929L19.7071 16.2929L18.2929 17.7071ZM17.7071 19.7071L19.7071 17.7071L18.2929 16.2929L16.2929 18.2929L17.7071 19.7071ZM19.7071 17.7071L21.7071 15.7071L20.2929 14.2929L18.2929 16.2929L19.7071 17.7071Z" fill="black"/>
</svg>
