<svg width="24" height="24" viewBox="0 0 24 24" fill="none" xmlns="http://www.w3.org/2000/svg">
<path d="M5 3V2C4.44772 2 4 2.44772 4 3H5ZM19 3H20C20 2.44772 19.5523 2 19 2V3ZM19 18V19C19.5523 19 20 18.5523 20 18H19ZM5 18V17C4.44772 17 4 17.4477 4 18H5ZM5 21H4C4 21.5523 4.44772 22 5 22V21ZM19 22C19.5523 22 20 21.5523 20 21C20 20.4477 19.5523 20 19 20V22ZM4 17.5C4 18.0523 4.44772 18.5 5 18.5C5.55228 18.5 6 18.0523 6 17.5H4ZM13.9735 12.8934L14.9199 12.5703L13.9735 12.8934ZM10.0265 12.8934L9.08013 12.5703L10.0265 12.8934ZM5 4H19V2H5V4ZM18 3V18H20V3H18ZM19 17H5V19H19V17ZM4 18V21H6V18H4ZM5 22H19V20H5V22ZM4 3V17.5H6V3H4ZM10.9728 13.2166C10.9563 13.2649 10.9467 13.2384 11.0245 13.1876C11.1126 13.1302 11.3788 13 12 13V11C11.1063 11 10.4297 11.1877 9.93177 11.5125C9.42357 11.844 9.18461 12.2643 9.08013 12.5703L10.9728 13.2166ZM12 13C12.6212 13 12.8874 13.1302 12.9755 13.1876C13.0533 13.2384 13.0437 13.2649 13.0272 13.2166L14.9199 12.5703C14.8154 12.2643 14.5764 11.844 14.0682 11.5125C13.5703 11.1877 12.8937 11 12 11V13ZM13.8895 12H10.1105V14H13.8895V12ZM11.75 8.75C11.75 8.61193 11.8619 8.5 12 8.5V10.5C12.9665 10.5 13.75 9.7165 13.75 8.75H11.75ZM12 8.5C12.1381 8.5 12.25 8.61193 12.25 8.75H10.25C10.25 9.7165 11.0335 10.5 12 10.5V8.5ZM12.25 8.75C12.25 8.88807 12.1381 9 12 9V7C11.0335 7 10.25 7.7835 10.25 8.75H12.25ZM12 9C11.8619 9 11.75 8.88807 11.75 8.75H13.75C13.75 7.7835 12.9665 7 12 7V9ZM11.25 9.75H12.75V7.75H11.25V9.75ZM13.0272 13.2166C12.9215 12.9072 12.9911 12.5749 13.1855 12.3362C13.369 12.1109 13.6339 12 13.8895 12V14C14.4876 14 15.2059 13.4079 14.9199 12.5703L13.0272 13.2166ZM9.08013 12.5703C8.79412 13.4079 9.5124 14 10.1105 14V12C10.3661 12 10.631 12.1109 10.8145 12.3362C11.0089 12.5749 11.0785 12.9072 10.9728 13.2166L9.08013 12.5703Z" fill="black"/>
</svg>
