<svg width="24" height="24" viewBox="0 0 24 24" fill="none" xmlns="http://www.w3.org/2000/svg">
<path d="M5 8V7C4.44772 7 4 7.44772 4 8H5ZM17 8H18C18 7.44772 17.5523 7 17 7V8ZM17 21V22C17.5523 22 18 21.5523 18 21H17ZM5 21H4C4 21.5523 4.44772 22 5 22V21ZM10 5C10 5.55228 10.4477 6 11 6C11.5523 6 12 5.55228 12 5H10ZM12 3C12 2.44772 11.5523 2 11 2C10.4477 2 10 2.44772 10 3H12ZM6 5C6 5.55228 6.44772 6 7 6C7.55228 6 8 5.55228 8 5H6ZM8 3C8 2.44772 7.55228 2 7 2C6.44772 2 6 2.44772 6 3H8ZM14 5C14 5.55228 14.4477 6 15 6C15.5523 6 16 5.55228 16 5H14ZM16 3C16 2.44772 15.5523 2 15 2C14.4477 2 14 2.44772 14 3H16ZM17 10V9H16V10H17ZM17 15H16V16H17V15ZM5 9H17V7H5V9ZM16 8V21H18V8H16ZM17 20H5V22H17V20ZM6 21V8H4V21H6ZM12 5V3H10V5H12ZM8 5V3H6V5H8ZM16 5V3H14V5H16ZM17 11H18.5V9H17V11ZM18.5 14H17V16H18.5V14ZM18 15V10H16V15H18ZM20 12.5C20 13.3284 19.3284 14 18.5 14V16C20.433 16 22 14.433 22 12.5H20ZM18.5 11C19.3284 11 20 11.6716 20 12.5H22C22 10.567 20.433 9 18.5 9V11Z" fill="black"/>
</svg>
