<svg width="24" height="24" viewBox="0 0 24 24" fill="none" xmlns="http://www.w3.org/2000/svg">
<path d="M16.5 5H16.51M19 3.75H19.01M21.5 2.5H21.51M21.5 5H21.51M21.5 7.5H21.51M19 6.25H19.01" stroke="black" stroke-width="2" stroke-linecap="round"/>
<path d="M8.97975 6.78633L6.04531 6.16259L3.34245 18.8785L13.1239 20.9576L15.8268 8.24171L12.8923 7.61797M8.97975 6.78633L9.8114 2.87374L13.724 3.70538L12.8923 7.61797M8.97975 6.78633L12.8923 7.61797M8.42926 11.781L9.58462 13.5601M9.58462 13.5601L10.74 15.3392M9.58462 13.5601L11.3637 12.4048M9.58462 13.5601L7.80553 14.7155" stroke="black" stroke-width="2" stroke-linecap="round" stroke-linejoin="round"/>
</svg>
