<svg width="24" height="24" viewBox="0 0 24 24" fill="none" xmlns="http://www.w3.org/2000/svg">
<path d="M4 4V3C3.44772 3 3 3.44772 3 4H4ZM20 4H21C21 3.44772 20.5523 3 20 3V4ZM2 16V15C1.44772 15 1 15.4477 1 16H2ZM13 17H14V15H13V17ZM13 21H14V19H13V21ZM2 20H1C1 20.5523 1.44772 21 2 21V20ZM19 9V10H21V9H19ZM13 9V8C12.4477 8 12 8.44772 12 9H13ZM22 9H23C23 8.44772 22.5523 8 22 8V9ZM22 21V22C22.5523 22 23 21.5523 23 21H22ZM13 21H12C12 21.5523 12.4477 22 13 22V21ZM17 17C16.4477 17 16 17.4477 16 18C16 18.5523 16.4477 19 17 19V17ZM18 19C18.5523 19 19 18.5523 19 18C19 17.4477 18.5523 17 18 17V19ZM4 5H20V3H4V5ZM5 16V4H3V16H5ZM2 17H4V15H2V17ZM4 17H13V15H4V17ZM13 19H2V21H13V19ZM3 20V16H1V20H3ZM19 4V9H21V4H19ZM13 10H22V8H13V10ZM21 9V21H23V9H21ZM22 20H13V22H22V20ZM14 21V9H12V21H14ZM17 19H18V17H17V19Z" fill="black"/>
</svg>
