<svg width="24" height="24" viewBox="0 0 24 24" fill="none" xmlns="http://www.w3.org/2000/svg">
<path d="M14.9218 16.8649V17.8649C15.3005 17.8649 15.6468 17.6509 15.8162 17.3121L14.9218 16.8649ZM15.8947 14.9189L16.7892 15.3662C17.0141 14.9163 16.8699 14.3694 16.4525 14.0889L15.8947 14.9189ZM13.0264 12.9915L13.5842 12.1615C13.4372 12.0627 13.2668 12.0048 13.0901 11.9935L13.0264 12.9915ZM11.1359 12.8708L11.1996 11.8729C10.9135 11.8546 10.6332 11.9601 10.4301 12.1624L11.1359 12.8708ZM10.0569 13.946L9.35108 13.2376C9.01292 13.5745 8.96006 14.1035 9.22485 14.5007L10.0569 13.946ZM12.0029 16.8649L11.1708 17.4196C11.3563 17.6978 11.6685 17.8649 12.0029 17.8649V16.8649ZM4.77184 7.27033C4.33013 6.9388 3.7033 7.02812 3.37177 7.46983C3.04024 7.91154 3.12956 8.53837 3.57127 8.8699L4.77184 7.27033ZM8.11113 11.027L7.51084 11.8268C7.74763 12.0045 8.05099 12.0681 8.33924 12.0006C8.6275 11.9331 8.87101 11.7413 9.00421 11.4769L8.11113 11.027ZM9.08896 9.0859L8.845 8.11611C8.56341 8.18695 8.32652 8.37668 8.19588 8.636L9.08896 9.0859ZM12.976 8.10806L13.22 9.07784C13.5776 8.98788 13.8567 8.70839 13.9461 8.35064L12.976 8.10806ZM15.0962 3.7514C15.2302 3.21561 14.9044 2.67266 14.3686 2.53869C13.8328 2.40471 13.2899 2.73044 13.1559 3.26623L15.0962 3.7514ZM20 12C20 16.4183 16.4183 20 12 20V22C17.5228 22 22 17.5228 22 12H20ZM12 20C7.58172 20 4 16.4183 4 12H2C2 17.5228 6.47715 22 12 22V20ZM4 12C4 7.58172 7.58172 4 12 4V2C6.47715 2 2 6.47715 2 12H4ZM12 4C16.4183 4 20 7.58172 20 12H22C22 6.47715 17.5228 2 12 2V4ZM15.8162 17.3121L16.7892 15.3662L15.0003 14.4717L14.0273 16.4177L15.8162 17.3121ZM16.4525 14.0889L13.5842 12.1615L12.4687 13.8215L15.337 15.7489L16.4525 14.0889ZM13.0901 11.9935L11.1996 11.8729L11.0722 13.8688L12.9627 13.9894L13.0901 11.9935ZM10.4301 12.1624L9.35108 13.2376L10.7627 14.6543L11.8418 13.5792L10.4301 12.1624ZM9.22485 14.5007L11.1708 17.4196L12.8349 16.3102L10.889 13.3913L9.22485 14.5007ZM12.0029 17.8649H14.9218V15.8649H12.0029V17.8649ZM3.57127 8.8699L7.51084 11.8268L8.71141 10.2272L4.77184 7.27033L3.57127 8.8699ZM9.00421 11.4769L9.98204 9.53579L8.19588 8.636L7.21805 10.5771L9.00421 11.4769ZM9.33293 10.0557L13.22 9.07784L12.732 7.13827L8.845 8.11611L9.33293 10.0557ZM13.9461 8.35064L15.0962 3.7514L13.1559 3.26623L12.0059 7.86548L13.9461 8.35064Z" fill="black"/>
</svg>
