<svg width="24" height="24" viewBox="0 0 24 24" fill="none" xmlns="http://www.w3.org/2000/svg">
<path d="M20 20V21C20.5523 21 21 20.5523 21 20H20ZM4 20H3C3 20.5523 3.44772 21 4 21V20ZM4 4V3C3.44772 3 3 3.44772 3 4H4ZM11 5C11.5523 5 12 4.55228 12 4C12 3.44772 11.5523 3 11 3V5ZM21 13C21 12.4477 20.5523 12 20 12C19.4477 12 19 12.4477 19 13H21ZM9 12L8.29289 11.2929C8.10536 11.4804 8 11.7348 8 12H9ZM9 15H8C8 15.5523 8.44772 16 9 16V15ZM12 15V16C12.2652 16 12.5196 15.8946 12.7071 15.7071L12 15ZM18 3L18.7071 2.29289C18.3166 1.90237 17.6834 1.90237 17.2929 2.29289L18 3ZM21 6L21.7071 6.70711C22.0976 6.31658 22.0976 5.68342 21.7071 5.29289L21 6ZM20 19H4V21H20V19ZM5 20V4H3V20H5ZM4 5H11V3H4V5ZM19 13V20H21V13H19ZM8 12V15H10V12H8ZM9 16H12V14H9V16ZM9.70711 12.7071L18.7071 3.70711L17.2929 2.29289L8.29289 11.2929L9.70711 12.7071ZM17.2929 3.70711L20.2929 6.70711L21.7071 5.29289L18.7071 2.29289L17.2929 3.70711ZM20.2929 5.29289L11.2929 14.2929L12.7071 15.7071L21.7071 6.70711L20.2929 5.29289Z" fill="black"/>
</svg>
