<svg width="24" height="24" viewBox="0 0 24 24" fill="none" xmlns="http://www.w3.org/2000/svg">
<path d="M20 20V21C20.5523 21 21 20.5523 21 20H20ZM4 20H3C3 20.5523 3.44772 21 4 21V20ZM4 4V3C3.44772 3 3 3.44772 3 4H4ZM11 5C11.5523 5 12 4.55228 12 4C12 3.44772 11.5523 3 11 3V5ZM21 13C21 12.4477 20.5523 12 20 12C19.4477 12 19 12.4477 19 13H21ZM13 8L12.2929 7.29289C12.1054 7.48043 12 7.73478 12 8H13ZM13 11H12C12 11.5523 12.4477 12 13 12V11ZM16 11V12C16.2652 12 16.5196 11.8946 16.7071 11.7071L16 11ZM19 2L19.7071 1.29289C19.3166 0.902369 18.6834 0.902369 18.2929 1.29289L19 2ZM22 5L22.7071 5.70711C23.0976 5.31658 23.0976 4.68342 22.7071 4.29289L22 5ZM20 19H4V21H20V19ZM5 20V4H3V20H5ZM4 5H11V3H4V5ZM19 13V20H21V13H19ZM12 8V11H14V8H12ZM13 12H16V10H13V12ZM13.7071 8.70711L19.7071 2.70711L18.2929 1.29289L12.2929 7.29289L13.7071 8.70711ZM18.2929 2.70711L21.2929 5.70711L22.7071 4.29289L19.7071 1.29289L18.2929 2.70711ZM21.2929 4.29289L15.2929 10.2929L16.7071 11.7071L22.7071 5.70711L21.2929 4.29289Z" fill="black"/>
</svg>
