<svg width="24" height="24" viewBox="0 0 24 24" fill="none" xmlns="http://www.w3.org/2000/svg">
<path d="M2.99951 19H1.99951C1.99951 19.5523 2.44723 20 2.99951 20V19ZM2.99951 5V4C2.44723 4 1.99951 4.44772 1.99951 5H2.99951ZM20.9995 19V20C21.5518 20 21.9995 19.5523 21.9995 19H20.9995ZM12.9995 6C13.5518 6 13.9995 5.55228 13.9995 5C13.9995 4.44772 13.5518 4 12.9995 4V6ZM21.9995 13C21.9995 12.4477 21.5518 12 20.9995 12C20.4472 12 19.9995 12.4477 19.9995 13H21.9995ZM3.59872 8.20051C3.15717 7.86876 2.5303 7.95778 2.19855 8.39933C1.86681 8.84087 1.95582 9.46775 2.39737 9.79949L3.59872 8.20051ZM16.2661 12.4246C16.7985 12.2776 17.1109 11.7269 16.9639 11.1945C16.817 10.6622 16.2663 10.3497 15.7339 10.4967L16.2661 12.4246ZM3.99951 19V5H1.99951V19H3.99951ZM20.9995 18H2.99951V20H20.9995V18ZM2.99951 6H12.9995V4H2.99951V6ZM19.9995 13V19H21.9995V13H19.9995ZM11.9995 11C8.84605 11 5.93871 9.95859 3.59872 8.20051L2.39737 9.79949C5.07185 11.8089 8.39802 13 11.9995 13V11ZM15.7339 10.4967C14.5462 10.8245 13.2941 11 11.9995 11V13C13.4757 13 14.9066 12.7998 16.2661 12.4246L15.7339 10.4967ZM21.9995 6C21.9995 7.10457 21.1041 8 19.9995 8V10C22.2087 10 23.9995 8.20914 23.9995 6H21.9995ZM19.9995 8C18.8949 8 17.9995 7.10457 17.9995 6H15.9995C15.9995 8.20914 17.7904 10 19.9995 10V8ZM17.9995 6C17.9995 4.89543 18.8949 4 19.9995 4V2C17.7904 2 15.9995 3.79086 15.9995 6H17.9995ZM19.9995 4C21.1041 4 21.9995 4.89543 21.9995 6H23.9995C23.9995 3.79086 22.2087 2 19.9995 2V4Z" fill="black"/>
</svg>
