<svg width="24" height="24" viewBox="0 0 24 24" fill="none" xmlns="http://www.w3.org/2000/svg">
<path d="M21 5H22C22 4.44772 21.5523 4 21 4V5ZM21 19V20C21.5523 20 22 19.5523 22 19H21ZM3.00002 19H2.00002C2.00002 19.5523 2.44773 20 3.00002 20V19ZM3.00002 5V4C2.44773 4 2.00002 4.44772 2.00002 5H3.00002ZM12 13L11.5528 13.8944C11.8343 14.0352 12.1657 14.0352 12.4472 13.8944L12 13ZM20 5V19H22V5H20ZM21 18H3.00002V20H21V18ZM4.00002 19V5H2.00002V19H4.00002ZM3.00002 6H21V4H3.00002V6ZM20.5528 7.60557L11.5528 12.1056L12.4472 13.8944L21.4472 9.39443L20.5528 7.60557ZM12.4472 12.1056L3.44723 7.60557L2.5528 9.39443L11.5528 13.8944L12.4472 12.1056Z" fill="black"/>
</svg>
