<svg width="24" height="24" viewBox="0 0 24 24" fill="none" xmlns="http://www.w3.org/2000/svg">
<path d="M21 5H22C22 4.44772 21.5523 4 21 4V5ZM21 19V20C21.5523 20 22 19.5523 22 19H21ZM3 19H2C2 19.5523 2.44772 20 3 20V19ZM3 5V4C2.44772 4 2 4.44772 2 5H3ZM12 13L11.3668 13.774C11.7351 14.0754 12.2649 14.0754 12.6332 13.774L12 13ZM20 5V19H22V5H20ZM21 18H3V20H21V18ZM4 19V5H2V19H4ZM3 6H21V4H3V6ZM20.3668 4.86241L11.3668 12.226L12.6332 13.774L21.6332 6.41033L20.3668 4.86241ZM12.6332 12.226L3.63324 4.86241L2.36676 6.41033L11.3668 13.774L12.6332 12.226Z" fill="black"/>
</svg>
