<svg width="24" height="24" viewBox="0 0 24 24" fill="none" xmlns="http://www.w3.org/2000/svg">
<path d="M5 3V2C4.44772 2 4 2.44772 4 3H5ZM13 3L13.7071 2.29289C13.5196 2.10536 13.2652 2 13 2V3ZM19 9H20C20 8.73478 19.8946 8.48043 19.7071 8.29289L19 9ZM19 21V22C19.5523 22 20 21.5523 20 21H19ZM13 9H12C12 9.55228 12.4477 10 13 10V9ZM4 8C4 8.55228 4.44772 9 5 9C5.55228 9 6 8.55228 6 8H4ZM12.5 20C11.9477 20 11.5 20.4477 11.5 21C11.5 21.5523 11.9477 22 12.5 22V20ZM2 15C2 15.5523 2.44772 16 3 16C3.55228 16 4 15.5523 4 15H2ZM8 15C8 15.5523 8.44772 16 9 16C9.55228 16 10 15.5523 10 15H8ZM4 18C4 17.4477 3.55228 17 3 17C2.44772 17 2 17.4477 2 18H4ZM10 18C10 17.4477 9.55228 17 9 17C8.44772 17 8 17.4477 8 18H10ZM7 16C7 15.4477 6.55228 15 6 15C5.44772 15 5 15.4477 5 16H7ZM5 17C5 17.5523 5.44772 18 6 18C6.55228 18 7 17.5523 7 17H5ZM5 4H13V2H5V4ZM18 9V21H20V9H18ZM12.2929 3.70711L18.2929 9.70711L19.7071 8.29289L13.7071 2.29289L12.2929 3.70711ZM12 3V9H14V3H12ZM13 10H19V8H13V10ZM6 8V3H4V8H6ZM19 20H12.5V22H19V20ZM4 15C4 13.8954 4.89543 13 6 13V11C3.79086 11 2 12.7909 2 15H4ZM6 13C7.10457 13 8 13.8954 8 15H10C10 12.7909 8.20914 11 6 11V13ZM2 18C2 20.2091 3.79086 22 6 22V20C4.89543 20 4 19.1046 4 18H2ZM6 22C8.20914 22 10 20.2091 10 18H8C8 19.1046 7.10457 20 6 20V22ZM5 16V17H7V16H5Z" fill="black"/>
</svg>
