<svg width="24" height="24" viewBox="0 0 24 24" fill="none" xmlns="http://www.w3.org/2000/svg">
<path d="M4 4V3C3.44772 3 3 3.44772 3 4H4ZM20 20V21C20.5523 21 21 20.5523 21 20H20ZM4 20H3C3 20.5523 3.44772 21 4 21V20ZM17 4L17.7071 3.29289C17.5196 3.10536 17.2652 3 17 3V4ZM20 7H21C21 6.73478 20.8946 6.48043 20.7071 6.29289L20 7ZM10 4C10 3.44772 9.55228 3 9 3C8.44772 3 8 3.44772 8 4H10ZM9 8H8C8 8.55228 8.44772 9 9 9V8ZM15 8V9C15.5523 9 16 8.55228 16 8H15ZM16 4C16 3.44772 15.5523 3 15 3C14.4477 3 14 3.44772 14 4H16ZM20 19H4V21H20V19ZM5 20V4H3V20H5ZM4 5H17V3H4V5ZM19 7V20H21V7H19ZM16.2929 4.70711L19.2929 7.70711L20.7071 6.29289L17.7071 3.29289L16.2929 4.70711ZM8 4V8H10V4H8ZM9 9H15V7H9V9ZM16 8V4H14V8H16ZM14 14C14 15.1046 13.1046 16 12 16V18C14.2091 18 16 16.2091 16 14H14ZM12 16C10.8954 16 10 15.1046 10 14H8C8 16.2091 9.79086 18 12 18V16ZM10 14C10 12.8954 10.8954 12 12 12V10C9.79086 10 8 11.7909 8 14H10ZM12 12C13.1046 12 14 12.8954 14 14H16C16 11.7909 14.2091 10 12 10V12Z" fill="black"/>
</svg>
