<svg width="24" height="24" viewBox="0 0 24 24" fill="none" xmlns="http://www.w3.org/2000/svg">
<path d="M8 9.99995V7.70706C8 7.26161 8.53857 7.03852 8.85355 7.3535L11.6464 10.1464C11.9614 10.4614 11.7383 11 11.2929 11H9C8.44772 11 8 10.5522 8 9.99995Z" fill="black"/>
<path d="M16 14V16.2928C16 16.7383 15.4614 16.9614 15.1464 16.6464L12.3536 13.8535C12.0386 13.5385 12.2617 13 12.7071 13H15C15.5523 13 16 13.4477 16 14Z" fill="black"/>
<path d="M4 8V4H8M4 16V20H8M16 4H20V8M20 16V20H16M14.4221 14.7188C13.7737 15.2828 12.9193 15.625 12 15.625C10.3448 15.625 8.94876 14.5157 8.51469 13M9.3725 9.4743C10.04 8.79626 10.98 8.375 12 8.375C13.6552 8.375 15.0512 9.4843 15.4853 11" stroke="black" stroke-width="2" stroke-linecap="round" stroke-linejoin="round"/>
</svg>
