<svg width="24" height="24" viewBox="0 0 24 24" fill="none" xmlns="http://www.w3.org/2000/svg">
<path d="M3 4V3C2.44772 3 2 3.44772 2 4H3ZM10 4L10.8321 3.4453C10.6466 3.1671 10.3344 3 10 3V4ZM12 7L11.1679 7.5547C11.3534 7.8329 11.6656 8 12 8V7ZM21 7H22C22 6.44772 21.5523 6 21 6V7ZM21 19V20C21.5523 20 22 19.5523 22 19H21ZM2 10C2 10.5523 2.44772 11 3 11C3.55228 11 4 10.5523 4 10H2ZM15 18C14.4477 18 14 18.4477 14 19C14 19.5523 14.4477 20 15 20V18ZM8 13C7.44772 13 7 13.4477 7 14C7 14.5523 7.44772 15 8 15V13ZM8 19C7.44772 19 7 19.4477 7 20C7 20.5523 7.44772 21 8 21V19ZM5 15C5.55228 15 6 14.5523 6 14C6 13.4477 5.55228 13 5 13V15ZM5 21C5.55228 21 6 20.5523 6 20C6 19.4477 5.55228 19 5 19V21ZM7 18C7.55228 18 8 17.5523 8 17C8 16.4477 7.55228 16 7 16V18ZM6 16C5.44772 16 5 16.4477 5 17C5 17.5523 5.44772 18 6 18V16ZM3 5H10V3H3V5ZM9.16795 4.5547L11.1679 7.5547L12.8321 6.4453L10.8321 3.4453L9.16795 4.5547ZM12 8H21V6H12V8ZM20 7V19H22V7H20ZM4 10V4H2V10H4ZM15 20H21V18H15V20ZM8 15C9.10457 15 10 15.8954 10 17H12C12 14.7909 10.2091 13 8 13V15ZM10 17C10 18.1046 9.10457 19 8 19V21C10.2091 21 12 19.2091 12 17H10ZM5 13C2.79086 13 1 14.7909 1 17H3C3 15.8954 3.89543 15 5 15V13ZM1 17C1 19.2091 2.79086 21 5 21V19C3.89543 19 3 18.1046 3 17H1ZM7 16H6V18H7V16Z" fill="black"/>
</svg>
