<svg width="24" height="24" viewBox="0 0 24 24" fill="none" xmlns="http://www.w3.org/2000/svg">
<path d="M3 4V3C2.44772 3 2 3.44772 2 4H3ZM10 4L10.8321 3.4453C10.6466 3.1671 10.3344 3 10 3V4ZM12 7L11.1679 7.5547C11.3534 7.8329 11.6656 8 12 8V7ZM21 7H22C22 6.44772 21.5523 6 21 6V7ZM21 19V20C21.5523 20 22 19.5523 22 19H21ZM2 11C2 11.5523 2.44772 12 3 12C3.55228 12 4 11.5523 4 11H2ZM11 18C10.4477 18 10 18.4477 10 19C10 19.5523 10.4477 20 11 20V18ZM7.70711 15.7071C8.09763 15.3166 8.09763 14.6834 7.70711 14.2929C7.31658 13.9024 6.68342 13.9024 6.29289 14.2929L7.70711 15.7071ZM2.29289 18.2929C1.90237 18.6834 1.90237 19.3166 2.29289 19.7071C2.68342 20.0976 3.31658 20.0976 3.70711 19.7071L2.29289 18.2929ZM3.70711 14.2929C3.31658 13.9024 2.68342 13.9024 2.29289 14.2929C1.90237 14.6834 1.90237 15.3166 2.29289 15.7071L3.70711 14.2929ZM6.29289 19.7071C6.68342 20.0976 7.31658 20.0976 7.70711 19.7071C8.09763 19.3166 8.09763 18.6834 7.70711 18.2929L6.29289 19.7071ZM3 5H10V3H3V5ZM9.16795 4.5547L11.1679 7.5547L12.8321 6.4453L10.8321 3.4453L9.16795 4.5547ZM12 8H21V6H12V8ZM20 7V19H22V7H20ZM4 11V4H2V11H4ZM11 20H21V18H11V20ZM6.29289 14.2929L4.29289 16.2929L5.70711 17.7071L7.70711 15.7071L6.29289 14.2929ZM4.29289 16.2929L2.29289 18.2929L3.70711 19.7071L5.70711 17.7071L4.29289 16.2929ZM2.29289 15.7071L4.29289 17.7071L5.70711 16.2929L3.70711 14.2929L2.29289 15.7071ZM4.29289 17.7071L6.29289 19.7071L7.70711 18.2929L5.70711 16.2929L4.29289 17.7071Z" fill="black"/>
</svg>
