<svg width="24" height="24" viewBox="0 0 24 24" fill="none" xmlns="http://www.w3.org/2000/svg">
<path d="M3.00094 4V3C2.44865 3 2.00094 3.44772 2.00094 4H3.00094ZM10.0009 4L10.833 3.4453C10.6475 3.1671 10.3353 3 10.0009 3V4ZM12.0009 7L11.1689 7.5547C11.3544 7.8329 11.6666 8 12.0009 8V7ZM21.0009 7H22.0009C22.0009 6.44772 21.5532 6 21.0009 6V7ZM21.0009 19V20C21.5532 20 22.0009 19.5523 22.0009 19H21.0009ZM2.00094 7C2.00094 7.55228 2.44865 8 3.00094 8C3.55322 8 4.00094 7.55228 4.00094 7H2.00094ZM14.0009 18C13.4487 18 13.0009 18.4477 13.0009 19C13.0009 19.5523 13.4487 20 14.0009 20V18ZM2.12695 20L1.15852 19.7507C1.08146 20.0501 1.14721 20.3683 1.33662 20.6127C1.52603 20.857 1.8178 21 2.12695 21V20ZM9.87492 20V21C10.1841 21 10.4758 20.857 10.6653 20.6127C10.8547 20.3683 10.9204 20.0501 10.8434 19.7507L9.87492 20ZM3.00094 5H10.0009V3H3.00094V5ZM9.16889 4.5547L11.1689 7.5547L12.833 6.4453L10.833 3.4453L9.16889 4.5547ZM12.0009 8H21.0009V6H12.0009V8ZM20.0009 7V19H22.0009V7H20.0009ZM4.00094 7V4H2.00094V7H4.00094ZM14.0009 20H21.0009V18H14.0009V20ZM6.75094 12.5C6.75094 12.9142 6.41515 13.25 6.00094 13.25V15.25C7.51972 15.25 8.75094 14.0188 8.75094 12.5H6.75094ZM6.00094 13.25C5.58672 13.25 5.25094 12.9142 5.25094 12.5H3.25094C3.25094 14.0188 4.48215 15.25 6.00094 15.25V13.25ZM5.25094 12.5C5.25094 12.0858 5.58672 11.75 6.00094 11.75V9.75C4.48215 9.75 3.25094 10.9812 3.25094 12.5H5.25094ZM6.00094 11.75C6.41515 11.75 6.75094 12.0858 6.75094 12.5H8.75094C8.75094 10.9812 7.51972 9.75 6.00094 9.75V11.75ZM3.09539 20.2493C3.42848 18.9551 4.60443 18 6.00094 18V16C3.66977 16 1.71351 17.5944 1.15852 19.7507L3.09539 20.2493ZM6.00094 18C7.39744 18 8.57339 18.9551 8.90648 20.2493L10.8434 19.7507C10.2884 17.5944 8.33211 16 6.00094 16V18ZM9.87492 19H2.12695V21H9.87492V19Z" fill="black"/>
</svg>
