<svg width="24" height="24" viewBox="0 0 24 24" fill="none" xmlns="http://www.w3.org/2000/svg">
<path d="M17 8V7.5C17 6.67157 17.6716 6 18.5 6C19.3284 6 20 6.67157 20 7.5V13.8292C20 17.7895 16.7895 21 12.8292 21C10.1669 21 7.72366 19.525 6.48368 17.169L3.5 11.5L4.25061 10.5617C4.94063 9.69921 6.19921 9.55937 7.06174 10.2494L8 11M8 11V10M8 11V5.5C8 4.67157 8.67157 4 9.5 4C10.3284 4 11 4.67157 11 5.5V11M11 8V4.5C11 3.67157 11.6716 3 12.5 3C13.3284 3 14 3.67157 14 4.5V8.5M14 8.5V5.5C14 4.67157 14.6716 4 15.5 4C16.3284 4 17 4.67157 17 5.5V12M14 8.5V11.5" stroke="black" stroke-width="2" stroke-linecap="round" stroke-linejoin="round"/>
</svg>
