<svg width="24" height="24" viewBox="0 0 24 24" fill="none" xmlns="http://www.w3.org/2000/svg">
<path d="M14.0312 3.29785C14.1764 3.58814 14.4119 3.8236 14.7021 3.96875L14.7637 4L14.7021 4.03125C14.4482 4.15824 14.2361 4.35422 14.0898 4.5957L14.0312 4.70215L14 4.76367L13.9688 4.70215L13.9102 4.5957C13.7639 4.35422 13.5518 4.15824 13.2979 4.03125L13.2354 4L13.2979 3.96875C13.5881 3.8236 13.8236 3.58814 13.9688 3.29785L14 3.23535L14.0312 3.29785Z" stroke="black" stroke-width="2" stroke-linecap="square" stroke-linejoin="round"/>
<path d="M9 4.69238C9.08574 4.81014 9.18894 4.91419 9.30664 5C9.18915 5.08565 9.08565 5.18915 9 5.30664C8.91419 5.18894 8.81014 5.08574 8.69238 5C8.81035 4.9141 8.9141 4.81035 9 4.69238Z" stroke="black" stroke-width="2" stroke-linecap="square" stroke-linejoin="round"/>
<path d="M18 13V19.9844C16.5341 20.6072 14.3894 21 12 21C9.61061 21 7.46589 20.6072 6 19.9844V13" stroke="black" stroke-width="2" stroke-linecap="round" stroke-linejoin="round"/>
<path d="M20 11C20 12.1046 16.4183 13 12 13C7.58172 13 4 12.1046 4 11C4 9.89543 7.58172 9 12 9C16.4183 9 20 9.89543 20 11Z" stroke="black" stroke-width="2"/>
</svg>
