<svg width="24" height="24" viewBox="0 0 24 24" fill="none" xmlns="http://www.w3.org/2000/svg">
<path d="M21 13H22V11H21V13ZM19 21V22C19.5523 22 20 21.5523 20 21H19ZM5 21H4C4 21.5523 4.44772 22 5 22V21ZM3 11H2V13H3V11ZM6.23274 9.44016L7.22274 9.29909V9.29909L6.23274 9.44016ZM7.25456 2.01409L7.46774 2.99111V2.99111L7.25456 2.01409ZM10.2673 8.55984L11.2573 8.41877V8.41877L10.2673 8.55984ZM18 8.00002L18.1241 7.00775C17.6015 6.94239 17.1178 7.29357 17.0181 7.81071L18 8.00002ZM19.999 8.25002L20.1404 7.26007C20.1347 7.25925 20.1289 7.25847 20.1231 7.25775L19.999 8.25002ZM15.499 4.25002L16.2059 4.9573V4.9573L15.499 4.25002ZM13.5 11.9684L12.5 11.9677V11.9677L13.5 11.9684ZM19 13H21V11H19V13ZM18 12V21H20V12H18ZM19 20H5V22H19V20ZM3 13H5V11H3V13ZM5 13H19V11H5V13ZM6 21V12H4V21H6ZM7.22274 9.29909C6.95745 7.4373 6.94112 5.73779 7.11037 4.50777C7.1958 3.88689 7.32156 3.43849 7.45254 3.1599C7.60211 2.84179 7.65389 2.95049 7.46774 2.99111L7.04138 1.03708C6.29819 1.19924 5.87499 1.8147 5.64262 2.30892C5.39166 2.84267 5.22851 3.51218 5.12903 4.23514C4.92846 5.69283 4.95826 7.58481 5.24274 9.58123L7.22274 9.29909ZM7.46774 2.99111C7.242 3.04036 7.20051 2.88205 7.40008 3.08788C7.58012 3.27355 7.81391 3.62341 8.06414 4.16707C8.5579 5.23987 9.01176 6.8376 9.27726 8.70091L11.2573 8.41877C10.973 6.42387 10.4776 4.62718 9.88094 3.33088C9.58598 2.69 9.23931 2.11165 8.83592 1.69562C8.45207 1.29976 7.82418 0.866278 7.04138 1.03708L7.46774 2.99111ZM7.712 11.7442C7.51595 11.0032 7.34802 10.1783 7.22274 9.29909L5.24274 9.58123C5.37836 10.533 5.56132 11.4347 5.77852 12.2558L7.712 11.7442ZM9.27726 8.70091C9.44546 9.88128 9.51437 11.0023 9.49753 11.9828L11.4972 12.0172C11.516 10.9219 11.4391 9.69475 11.2573 8.41877L9.27726 8.70091ZM17.8759 8.99229L19.8749 9.24229L20.1231 7.25775L18.1241 7.00775L17.8759 8.99229ZM17.0181 7.81071C16.8063 8.90923 16.5511 10.1206 15.6679 11.4453L17.3321 12.5547C18.4489 10.8794 18.7614 9.33324 18.9819 8.18933L17.0181 7.81071ZM19.8576 9.23997C20.3627 9.31213 20.9972 9.31334 21.4948 8.93803C22.0926 8.48708 22.1242 7.80784 22.0344 7.35874C21.9466 6.91915 21.7194 6.48909 21.471 6.11925C21.2126 5.73446 20.8837 5.34515 20.519 4.98045C19.7997 4.26112 18.8631 3.56003 17.9146 3.17502C17.0139 2.80941 15.7331 2.6022 14.7921 3.54273L16.2059 4.9573C16.2654 4.89785 16.4849 4.75315 17.1624 5.02816C17.7921 5.28378 18.5116 5.80144 19.1047 6.3946C19.3963 6.68615 19.6376 6.97653 19.8107 7.23432C19.9939 7.50705 20.0596 7.68246 20.0732 7.75068C20.085 7.80939 20.0266 7.54031 20.2904 7.34131C20.454 7.21795 20.5103 7.31291 20.1404 7.26007L19.8576 9.23997ZM14.5 12.0007L14.5 11.9691L12.5 11.9677L12.5 11.9993L14.5 12.0007ZM14.5 11.9691C14.5025 8.40657 14.5495 6.61293 16.2059 4.9573L14.7921 3.54273C12.4586 5.87501 12.5024 8.56629 12.5 11.9677L14.5 11.9691Z" fill="black"/>
</svg>
