<svg width="24" height="24" viewBox="0 0 24 24" fill="none" xmlns="http://www.w3.org/2000/svg">
<path d="M12 3L12.5821 2.18689C12.2341 1.9377 11.766 1.9377 11.4179 2.18689L12 3ZM5.00001 8.01141L4.4179 7.1983H4.4179L5.00001 8.01141ZM19 8.01141L19.5821 7.1983V7.1983L19 8.01141ZM5.00001 20H4.00001C4.00001 20.5523 4.44773 21 5.00001 21V20ZM20.9179 10.6143C21.367 10.9358 21.9916 10.8324 22.3131 10.3833C22.6346 9.93426 22.5312 9.3096 22.0821 8.9881L20.9179 10.6143ZM1.91788 8.9881C1.46882 9.3096 1.3654 9.93426 1.68689 10.3833C2.00839 10.8324 2.63305 10.9358 3.08212 10.6143L1.91788 8.9881ZM19 20V21C19.5523 21 20 20.5523 20 20H19ZM8 21C8.55228 21 9 20.5523 9 20C9 19.4477 8.55228 19 8 19V21ZM16 19C15.4477 19 15 19.4477 15 20C15 20.5523 15.4477 21 16 21V19ZM9 12V11C8.44772 11 8 11.4477 8 12H9ZM15 12H16C16 11.4477 15.5523 11 15 11V12ZM15 16V17C15.5523 17 16 16.5523 16 16H15ZM9 16H8C8 16.5523 8.44772 17 9 17V16ZM11 20C11 20.5523 11.4477 21 12 21C12.5523 21 13 20.5523 13 20H11ZM9 12C9 12.5523 9.44772 13 10 13C10.5523 13 11 12.5523 11 12H9ZM11 10C11 9.44772 10.5523 9 10 9C9.44772 9 9 9.44772 9 10H11ZM13 12C13 12.5523 13.4477 13 14 13C14.5523 13 15 12.5523 15 12H13ZM15 10C15 9.44772 14.5523 9 14 9C13.4477 9 13 9.44772 13 10H15ZM11.4179 2.18689L4.4179 7.1983L5.58213 8.82452L12.5821 3.81311L11.4179 2.18689ZM11.4179 3.81311L18.4179 8.82452L19.5821 7.1983L12.5821 2.18689L11.4179 3.81311ZM6.00001 20V8.01141H4.00001V20H6.00001ZM18.4179 8.82452L20.9179 10.6143L22.0821 8.9881L19.5821 7.1983L18.4179 8.82452ZM4.4179 7.1983L1.91788 8.9881L3.08212 10.6143L5.58213 8.82452L4.4179 7.1983ZM20 20V8.01141H18V20H20ZM5.00001 21H8V19H5.00001V21ZM19 19H16V21H19V19ZM9 13H15V11H9V13ZM14 12V16H16V12H14ZM10 16V12H8V16H10ZM15 15H12V17H15V15ZM12 15H9V17H12V15ZM11 16V20H13V16H11ZM11 12V10H9V12H11ZM15 12V10H13V12H15Z" fill="black"/>
</svg>
