<svg width="24" height="24" viewBox="0 0 24 24" fill="none" xmlns="http://www.w3.org/2000/svg">
<path d="M19 7.76135V9.88065" stroke="black" stroke-width="2" stroke-linecap="round" stroke-linejoin="round"/>
<path d="M21.5 9.55121L12 2.75L2.5 9.55121" stroke="black" stroke-width="2" stroke-linecap="round" stroke-linejoin="round"/>
<path d="M5 7.76135V19.9999H12" stroke="black" stroke-width="2" stroke-linecap="round" stroke-linejoin="round"/>
<path d="M19.0184 14.0218C19.0184 13.5324 18.4181 13.3132 18.1151 13.692L15.1161 17.441C14.844 17.781 15.0806 18.2916 15.5102 18.2916H16.9816V20.4782C16.9816 20.9676 17.5819 21.1868 17.8849 20.808L20.8839 17.059C21.156 16.719 20.9194 16.2084 20.4898 16.2084H19.0184V14.0218Z" fill="black"/>
<path d="M9.5 12C9.5 10.6193 10.6193 9.5 12 9.5C13.3807 9.5 14.5 10.6193 14.5 12C14.5 13.3807 13.3807 14.5 12 14.5C10.6193 14.5 9.5 13.3807 9.5 12Z" stroke="black" stroke-width="2" stroke-linecap="round"/>
</svg>
