<svg width="24" height="24" viewBox="0 0 24 24" fill="none" xmlns="http://www.w3.org/2000/svg">
<path d="M2.75 19L1.91303 18.4528C1.71208 18.7601 1.69573 19.1528 1.87044 19.4758C2.04515 19.7988 2.38281 20 2.75 20V19ZM7 12.5L7.58124 11.6863C7.35961 11.528 7.083 11.4669 6.81533 11.5172C6.54766 11.5675 6.31208 11.7248 6.16303 11.9528L7 12.5ZM10.5 15L9.91876 15.8137C10.367 16.1339 10.9897 16.0313 11.3115 15.5843L10.5 15ZM15 8.75L15.8538 8.22939C15.6793 7.94325 15.3731 7.76354 15.0382 7.75073C14.7033 7.73792 14.3843 7.89372 14.1885 8.1657L15 8.75ZM21.25 19V20C21.6115 20 21.9449 19.8048 22.122 19.4896C22.299 19.1743 22.292 18.7881 22.1038 18.4794L21.25 19ZM3.58697 19.5472L7.83697 13.0472L6.16303 11.9528L1.91303 18.4528L3.58697 19.5472ZM6.41876 13.3137L9.91876 15.8137L11.0812 14.1863L7.58124 11.6863L6.41876 13.3137ZM11.3115 15.5843L15.8115 9.3343L14.1885 8.1657L9.68847 14.4157L11.3115 15.5843ZM14.1462 9.27061L20.3962 19.5206L22.1038 18.4794L15.8538 8.22939L14.1462 9.27061ZM2.75 20H21.25V18H2.75V20ZM10.5 6.5C10.5 7.32843 9.82843 8 9 8V10C10.933 10 12.5 8.433 12.5 6.5H10.5ZM9 8C8.17157 8 7.5 7.32843 7.5 6.5H5.5C5.5 8.433 7.067 10 9 10V8ZM7.5 6.5C7.5 5.67157 8.17157 5 9 5V3C7.067 3 5.5 4.567 5.5 6.5H7.5ZM9 5C9.82843 5 10.5 5.67157 10.5 6.5H12.5C12.5 4.567 10.933 3 9 3V5Z" fill="black"/>
</svg>
