<svg width="24" height="24" viewBox="0 0 24 24" fill="none" xmlns="http://www.w3.org/2000/svg">
<path d="M4 4V3H3V4H4ZM20 4H21V3H20V4ZM20 20V21H21V20H20ZM4 20H3V21H4V20ZM3.29289 15.2929C2.90237 15.6834 2.90237 16.3166 3.29289 16.7071C3.68342 17.0976 4.31658 17.0976 4.70711 16.7071L3.29289 15.2929ZM8 12L8.70711 11.2929C8.31658 10.9024 7.68342 10.9024 7.29289 11.2929L8 12ZM12 16L11.2929 16.7071C11.6834 17.0976 12.3166 17.0976 12.7071 16.7071L12 16ZM14 14L14.7071 13.2929C14.3166 12.9024 13.6834 12.9024 13.2929 13.2929L14 14ZM4 5H20V3H4V5ZM19 4V20H21V4H19ZM20 19H4V21H20V19ZM5 20V4H3V20H5ZM4.70711 16.7071L8.70711 12.7071L7.29289 11.2929L3.29289 15.2929L4.70711 16.7071ZM7.29289 12.7071L11.2929 16.7071L12.7071 15.2929L8.70711 11.2929L7.29289 12.7071ZM12.7071 16.7071L14.7071 14.7071L13.2929 13.2929L11.2929 15.2929L12.7071 16.7071ZM13.2929 14.7071L19.2929 20.7071L20.7071 19.2929L14.7071 13.2929L13.2929 14.7071ZM14.25 9V11C15.3546 11 16.25 10.1046 16.25 9H14.25ZM14.25 9H12.25C12.25 10.1046 13.1454 11 14.25 11V9ZM14.25 9V7C13.1454 7 12.25 7.89543 12.25 9H14.25ZM14.25 9H16.25C16.25 7.89543 15.3546 7 14.25 7V9Z" fill="black"/>
</svg>
