<svg width="24" height="24" viewBox="0 0 24 24" fill="none" xmlns="http://www.w3.org/2000/svg">
<path d="M4 4V3H3V4H4ZM20 4H21V3H20V4ZM20 20V21H21V20H20ZM4 20H3V21H4V20ZM8 12L8.70711 11.2929C8.31658 10.9024 7.68342 10.9024 7.29289 11.2929L8 12ZM4 5H20V3H4V5ZM19 4V20H21V4H19ZM20 19H4V21H20V19ZM5 20V4H3V20H5ZM7.29289 12.7071L15.2929 20.7071L16.7071 19.2929L8.70711 11.2929L7.29289 12.7071ZM4.70711 16.7071L8.70711 12.7071L7.29289 11.2929L3.29289 15.2929L4.70711 16.7071ZM15.5 9.5C15.5 10.0523 15.0523 10.5 14.5 10.5V12.5C16.1569 12.5 17.5 11.1569 17.5 9.5H15.5ZM14.5 10.5C13.9477 10.5 13.5 10.0523 13.5 9.5H11.5C11.5 11.1569 12.8431 12.5 14.5 12.5V10.5ZM13.5 9.5C13.5 8.94772 13.9477 8.5 14.5 8.5V6.5C12.8431 6.5 11.5 7.84315 11.5 9.5H13.5ZM14.5 8.5C15.0523 8.5 15.5 8.94772 15.5 9.5H17.5C17.5 7.84315 16.1569 6.5 14.5 6.5V8.5Z" fill="black"/>
</svg>
