<svg width="24" height="24" viewBox="0 0 24 24" fill="none" xmlns="http://www.w3.org/2000/svg">
<path d="M6 16.125C6.48325 16.125 6.875 16.5168 6.875 17C6.875 17.4832 6.48325 17.875 6 17.875C5.51675 17.875 5.125 17.4832 5.125 17C5.125 16.5168 5.51675 16.125 6 16.125ZM18 16.125C18.4832 16.125 18.875 16.5168 18.875 17C18.875 17.4832 18.4832 17.875 18 17.875C17.5168 17.875 17.125 17.4832 17.125 17C17.125 16.5168 17.5168 16.125 18 16.125ZM6 12.125C6.48325 12.125 6.875 12.5168 6.875 13C6.875 13.4832 6.48325 13.875 6 13.875C5.51675 13.875 5.125 13.4832 5.125 13C5.125 12.5168 5.51675 12.125 6 12.125ZM10 12.125C10.4832 12.125 10.875 12.5168 10.875 13C10.875 13.4832 10.4832 13.875 10 13.875C9.51675 13.875 9.125 13.4832 9.125 13C9.125 12.5168 9.51675 12.125 10 12.125ZM14 12.125C14.4832 12.125 14.875 12.5168 14.875 13C14.875 13.4832 14.4832 13.875 14 13.875C13.5168 13.875 13.125 13.4832 13.125 13C13.125 12.5168 13.5168 12.125 14 12.125ZM18 12.125C18.4832 12.125 18.875 12.5168 18.875 13C18.875 13.4832 18.4832 13.875 18 13.875C17.5168 13.875 17.125 13.4832 17.125 13C17.125 12.5168 17.5168 12.125 18 12.125Z" fill="black" stroke="black" stroke-width="0.75" stroke-linecap="square"/>
<path d="M10 17H14M6 9V5H18V3M2 9H22V21H2V9Z" stroke="black" stroke-width="2" stroke-linecap="round" stroke-linejoin="round"/>
</svg>
