<svg width="24" height="24" viewBox="0 0 24 24" fill="none" xmlns="http://www.w3.org/2000/svg">
<path d="M10 19L12 21L14 19M10 11H14M2 3H22V15H2V3Z" stroke="black" stroke-width="2" stroke-linecap="round" stroke-linejoin="round"/>
<path d="M6 10.125C6.48325 10.125 6.875 10.5168 6.875 11C6.875 11.4832 6.48325 11.875 6 11.875C5.51675 11.875 5.125 11.4832 5.125 11C5.125 10.5168 5.51675 10.125 6 10.125ZM18 10.125C18.4832 10.125 18.875 10.5168 18.875 11C18.875 11.4832 18.4832 11.875 18 11.875C17.5168 11.875 17.125 11.4832 17.125 11C17.125 10.5168 17.5168 10.125 18 10.125ZM6 6.125C6.48325 6.125 6.875 6.51675 6.875 7C6.875 7.48325 6.48325 7.875 6 7.875C5.51675 7.875 5.125 7.48325 5.125 7C5.125 6.51675 5.51675 6.125 6 6.125ZM10 6.125C10.4832 6.125 10.875 6.51675 10.875 7C10.875 7.48325 10.4832 7.875 10 7.875C9.51675 7.875 9.125 7.48325 9.125 7C9.125 6.51675 9.51675 6.125 10 6.125ZM14 6.125C14.4832 6.125 14.875 6.51675 14.875 7C14.875 7.48325 14.4832 7.875 14 7.875C13.5168 7.875 13.125 7.48325 13.125 7C13.125 6.51675 13.5168 6.125 14 6.125ZM18 6.125C18.4832 6.125 18.875 6.51675 18.875 7C18.875 7.48325 18.4832 7.875 18 7.875C17.5168 7.875 17.125 7.48325 17.125 7C17.125 6.51675 17.5168 6.125 18 6.125Z" fill="black" stroke="black" stroke-width="0.75" stroke-linecap="square"/>
</svg>
