<svg width="24" height="24" viewBox="0 0 24 24" fill="none" xmlns="http://www.w3.org/2000/svg">
<path fill-rule="evenodd" clip-rule="evenodd" d="M11.5939 3.08619C11.8524 2.97127 12.1476 2.97127 12.4061 3.08619L21.4061 7.08619C21.7673 7.24669 22 7.60481 22 8C22 8.39519 21.7673 8.75331 21.4061 8.91381L12.4061 12.9138C12.1476 13.0287 11.8524 13.0287 11.5939 12.9138L2.59386 8.91381C2.23273 8.75331 2 8.39519 2 8C2 7.60481 2.23273 7.24669 2.59386 7.08619L11.5939 3.08619ZM5.46221 8L12 10.9057L18.5378 8L12 5.09432L5.46221 8Z" fill="black"/>
<path d="M21.4061 11.0862C21.7673 11.2467 22 11.6048 22 12C22 12.3952 21.7673 12.7533 21.4061 12.9138L12.4061 16.9138C12.1476 17.0287 11.8524 17.0287 11.5939 16.9138L2.59386 12.9138C2.23273 12.7533 2 12.3952 2 12C2 11.6048 2.23273 11.2467 2.59386 11.0862C2.85243 10.9713 3.14758 10.9713 3.40614 11.0862L12 14.9057L20.5939 11.0862C20.8524 10.9713 21.1476 10.9713 21.4061 11.0862Z" fill="black"/>
<path d="M21.4061 15.0862C21.7673 15.2467 22 15.6048 22 16C22 16.3952 21.7673 16.7533 21.4061 16.9138L12.4061 20.9138C12.1476 21.0287 11.8524 21.0287 11.5939 20.9138L2.59386 16.9138C2.23273 16.7533 2 16.3952 2 16C2 15.6048 2.23273 15.2467 2.59386 15.0862C2.85243 14.9713 3.14758 14.9713 3.40614 15.0862L12 18.9057L20.5939 15.0862C20.8524 14.9713 21.1476 14.9713 21.4061 15.0862Z" fill="black"/>
</svg>
