<svg width="24" height="24" viewBox="0 0 24 24" fill="none" xmlns="http://www.w3.org/2000/svg">
<path d="M20 4H21C21 3.44772 20.5523 3 20 3V4ZM20 20V21C20.5523 21 21 20.5523 21 20H20ZM4 20H3C3 20.5523 3.44772 21 4 21V20ZM4 4V3C3.44772 3 3 3.44772 3 4H4ZM20 10.3301H21V8.33008H20V10.3301ZM4 8.33008H3V10.3301H4V8.33008ZM20 15.6699H21V13.6699H20V15.6699ZM4 13.6699H3V15.6699H4V13.6699ZM19 4V20H21V4H19ZM20 19H4V21H20V19ZM5 20V4H3V20H5ZM4 5H20V3H4V5ZM4 10.3301H20V8.33008H4V10.3301ZM4 15.6699H20V13.6699H4V15.6699Z" fill="black"/>
</svg>
