<svg width="24" height="24" viewBox="0 0 24 24" fill="none" xmlns="http://www.w3.org/2000/svg">
<path d="M20 4H21C21 3.44772 20.5523 3 20 3V4ZM20 20V21C20.5523 21 21 20.5523 21 20H20ZM4 20H3C3 20.5523 3.44772 21 4 21V20ZM4 4V3C3.44772 3 3 3.44772 3 4H4ZM20 13C20.5523 13 21 12.5523 21 12C21 11.4477 20.5523 11 20 11V13ZM11 4C11 3.44772 10.5523 3 10 3C9.44772 3 9 3.44772 9 4H11ZM9 20C9 20.5523 9.44772 21 10 21C10.5523 21 11 20.5523 11 20H9ZM19 4V20H21V4H19ZM20 19H4V21H20V19ZM5 20V4H3V20H5ZM4 5H20V3H4V5ZM20 11H10V13H20V11ZM11 12V4H9V12H11ZM9 12V20H11V12H9Z" fill="black"/>
</svg>
