<svg width="24" height="24" viewBox="0 0 24 24" fill="none" xmlns="http://www.w3.org/2000/svg">
<path d="M1 18.5C1 18.2239 1.22386 18 1.5 18H8.76393C8.91918 18 9.07229 18.0361 9.21115 18.1056L9.78885 18.3944C9.92771 18.4639 10.0808 18.5 10.2361 18.5H13.7639C13.9192 18.5 14.0723 18.4639 14.2111 18.3944L14.7889 18.1056C14.9277 18.0361 15.0808 18 15.2361 18H22.5C22.7761 18 23 18.2239 23 18.5V19C23 19.5523 22.5523 20 22 20H2C1.44772 20 1 19.5523 1 19V18.5Z" fill="black"/>
<path fill-rule="evenodd" clip-rule="evenodd" d="M2 5C2 4.44772 2.44772 4 3 4H21C21.5523 4 22 4.44772 22 5V15C22 15.5523 21.5523 16 21 16C20.4477 16 20 15.5523 20 15V6H4V15C4 15.5523 3.55228 16 3 16C2.44772 16 2 15.5523 2 15V5Z" fill="black"/>
</svg>
