<svg width="24" height="24" viewBox="0 0 24 24" fill="none" xmlns="http://www.w3.org/2000/svg">
<path fill-rule="evenodd" clip-rule="evenodd" d="M4 3C4 2.44772 4.44772 2 5 2H19C19.5523 2 20 2.44772 20 3V21C20 21.5523 19.5523 22 19 22H5C4.44772 22 4 21.5523 4 21V3ZM6 16H18V4H6L6 16ZM18 18H6V20H18V18Z" fill="black"/>
<path d="M12.1843 7.40787C12.281 7.35949 12.3595 7.28103 12.4079 7.18426L13.0528 5.89443C13.237 5.5259 13.763 5.5259 13.9472 5.89443L14.5921 7.18426C14.6405 7.28103 14.719 7.35949 14.8157 7.40787L16.1056 8.05279C16.4741 8.23705 16.4741 8.76295 16.1056 8.94721L14.8157 9.59213C14.719 9.64051 14.6405 9.71897 14.5921 9.81574L13.9472 11.1056C13.763 11.4741 13.237 11.4741 13.0528 11.1056L12.4079 9.81574C12.3595 9.71897 12.281 9.64051 12.1843 9.59213L10.8944 8.94721C10.5259 8.76295 10.5259 8.23705 10.8944 8.05279L12.1843 7.40787Z" fill="black"/>
<path d="M8.57722 11.7114C8.63528 11.6824 8.68236 11.6353 8.71139 11.5772L9.23167 10.5367C9.34223 10.3155 9.65777 10.3155 9.76833 10.5367L10.2886 11.5772C10.3176 11.6353 10.3647 11.6824 10.4228 11.7114L11.4633 12.2317C11.6845 12.3422 11.6845 12.6578 11.4633 12.7683L10.4228 13.2886C10.3647 13.3176 10.3176 13.3647 10.2886 13.4228L9.76833 14.4633C9.65777 14.6845 9.34223 14.6845 9.23167 14.4633L8.71139 13.4228C8.68236 13.3647 8.63528 13.3176 8.57722 13.2886L7.53666 12.7683C7.31554 12.6578 7.31554 12.3422 7.53666 12.2317L8.57722 11.7114Z" fill="black"/>
</svg>
