<svg width="24" height="24" viewBox="0 0 24 24" fill="none" xmlns="http://www.w3.org/2000/svg">
<rect x="21" y="3" width="4" height="4" transform="rotate(90 21 3)" stroke="black" stroke-width="1.995" stroke-linecap="square" stroke-linejoin="round"/>
<path d="M5.75736 18.2426C3.41421 15.8995 3.41421 12.1005 5.75736 9.75736L10.7071 4.80761L13.182 7.28249L8.23223 12.2322C7.25592 13.2085 7.25592 14.7915 8.23223 15.7678C9.20854 16.7441 10.7915 16.7441 11.7678 15.7678L16.7175 10.818L19.1924 13.2929L14.2426 18.2426C13.0711 19.4142 11.5355 20 10 20C8.46447 20 6.92893 19.4142 5.75736 18.2426Z" stroke="black" stroke-width="1.995" stroke-linecap="square" stroke-linejoin="round"/>
<path d="M13.8887 13.6465L16.3635 16.1214" stroke="black" stroke-width="1.995" stroke-linecap="square" stroke-linejoin="round"/>
<path d="M7.87891 7.63599L10.3538 10.1109" stroke="black" stroke-width="1.995" stroke-linecap="square" stroke-linejoin="round"/>
</svg>
