<svg width="24" height="24" viewBox="0 0 24 24" fill="none" xmlns="http://www.w3.org/2000/svg">
<path fill-rule="evenodd" clip-rule="evenodd" d="M12.0931 2.53045C12.2873 2.86497 12.2712 3.28147 12.0517 3.59995C11.3858 4.56606 10.9961 5.73602 10.9961 7.00001C10.9961 10.3137 13.6824 13 16.9961 13C18.2602 13 19.4302 12.6102 20.3963 11.9443C20.7148 11.7248 21.1313 11.7087 21.4658 11.9028C21.8003 12.097 21.9929 12.4667 21.9602 12.8521C21.5264 17.9747 17.2324 21.9963 11.9981 21.9963C6.47632 21.9963 2 17.52 2 11.9981C2 6.76396 6.0214 2.47009 11.1438 2.03605C11.5292 2.0034 11.8989 2.19593 12.0931 2.53045ZM9.42003 4.42442C6.268 5.49703 4 8.4831 4 11.9981C4 16.4154 7.58088 19.9963 11.9981 19.9963C15.5133 19.9963 18.4994 17.7281 19.5719 14.576C18.7632 14.8509 17.8967 15 16.9961 15C12.5778 15 8.99609 11.4183 8.99609 7.00001C8.99609 6.09955 9.14518 5.23304 9.42003 4.42442Z" fill="black"/>
<path d="M16.2374 5.01761L17.049 3.39444C17.2332 3.02591 17.7591 3.02591 17.9434 3.39444L18.755 5.01761C18.8034 5.11437 18.8818 5.19283 18.9786 5.24121L20.6017 6.0528C20.9703 6.23706 20.9703 6.76296 20.6017 6.94723L18.9786 7.75881C18.8818 7.80719 18.8034 7.88565 18.755 7.98242L17.9434 9.60558C17.7591 9.97411 17.2332 9.97411 17.049 9.60558L16.2374 7.98242C16.189 7.88565 16.1105 7.80719 16.0138 7.75881L14.3906 6.94723C14.0221 6.76296 14.0221 6.23706 14.3906 6.0528L16.0138 5.24121C16.1105 5.19283 16.189 5.11437 16.2374 5.01761Z" fill="black"/>
</svg>
