<svg width="24" height="24" viewBox="0 0 24 24" fill="none" xmlns="http://www.w3.org/2000/svg">
<path d="M3 3V2C2.44772 2 2 2.44772 2 3H3ZM15 3H16C16 2.44772 15.5523 2 15 2V3ZM14 9V10H16V9H14ZM3 15H2C2 15.5523 2.44772 16 3 16V15ZM9 16H10V14H9V16ZM9 9V8C8.44772 8 8 8.44772 8 9H9ZM21 9H22C22 8.44772 21.5523 8 21 8V9ZM9 21H8C8 21.5523 8.44772 22 9 22V21ZM21 21V22C21.5523 22 22 21.5523 22 21H21ZM2.4453 11.1679C1.98577 11.4743 1.8616 12.0952 2.16795 12.5547C2.4743 13.0142 3.09517 13.1384 3.5547 12.8321L2.4453 11.1679ZM6 10L6.5547 9.16795C6.2188 8.94402 5.7812 8.94402 5.4453 9.16795L6 10ZM8.4453 12.8321C8.90483 13.1384 9.5257 13.0142 9.83205 12.5547C10.1384 12.0952 10.0142 11.4743 9.5547 11.1679L8.4453 12.8321ZM6.25 5.25C5.69772 5.25 5.25 5.69772 5.25 6.25C5.25 6.80228 5.69772 7.25 6.25 7.25V5.25ZM6.26 7.25C6.81228 7.25 7.26 6.80228 7.26 6.25C7.26 5.69772 6.81228 5.25 6.26 5.25V7.25ZM14 13.4L14.5795 12.585C14.2746 12.3682 13.874 12.3397 13.5415 12.5113C13.2089 12.6829 13 13.0258 13 13.4H14ZM14 16.6H13C13 16.9742 13.2089 17.3171 13.5415 17.4887C13.874 17.6603 14.2746 17.6318 14.5795 17.415L14 16.6ZM16.25 15L16.8295 15.815C17.0933 15.6274 17.25 15.3237 17.25 15C17.25 14.6763 17.0933 14.3726 16.8295 14.185L16.25 15ZM3 4H15V2H3V4ZM14 3V9H16V3H14ZM2 3V15H4V3H2ZM3 16H9V14H3V16ZM9 10H21V8H9V10ZM8 9V21H10V9H8ZM9 22H21V20H9V22ZM20 9V21H22V9H20ZM3.5547 12.8321L6.5547 10.8321L5.4453 9.16795L2.4453 11.1679L3.5547 12.8321ZM5.4453 10.8321L8.4453 12.8321L9.5547 11.1679L6.5547 9.16795L5.4453 10.8321ZM5.5 6.25C5.5 5.83579 5.83579 5.5 6.25 5.5V7.5C6.94036 7.5 7.5 6.94036 7.5 6.25H5.5ZM6.25 5.5C6.66421 5.5 7 5.83579 7 6.25H5C5 6.94036 5.55964 7.5 6.25 7.5V5.5ZM7 6.25C7 6.66421 6.66421 7 6.25 7V5C5.55964 5 5 5.55964 5 6.25H7ZM6.25 7C5.83579 7 5.5 6.66421 5.5 6.25H7.5C7.5 5.55964 6.94036 5 6.25 5V7ZM6.25 7.25H6.26V5.25H6.25V7.25ZM13 13.4V16.6H15V13.4H13ZM14.5795 17.415L16.8295 15.815L15.6705 14.185L13.4205 15.785L14.5795 17.415ZM16.8295 14.185L14.5795 12.585L13.4205 14.215L15.6705 15.815L16.8295 14.185Z" fill="black"/>
</svg>
