<svg width="24" height="24" viewBox="0 0 24 24" fill="none" xmlns="http://www.w3.org/2000/svg">
<path fill-rule="evenodd" clip-rule="evenodd" d="M13.2982 1.04556C13.7157 1.17599 14 1.56265 14 2.00007V8.00007H20C20.3719 8.00007 20.7132 8.20651 20.8858 8.53597C21.0584 8.86543 21.0339 9.26347 20.8222 9.56928L16.993 15.1003L21.6644 19.2526C22.0772 19.6195 22.1143 20.2516 21.7474 20.6644C21.3805 21.0772 20.7484 21.1143 20.3356 20.7474L2.33565 4.74742C1.92286 4.3805 1.88568 3.74843 2.2526 3.33565C2.61952 2.92286 3.25159 2.88568 3.66437 3.2526L8.15385 7.24325L12.1778 1.43086C12.4268 1.07122 12.8806 0.915134 13.2982 1.04556ZM9.6597 8.58178L15.4872 13.7618L18.0914 10.0001H13C12.4477 10.0001 12 9.55236 12 9.00007V5.20134L9.6597 8.58178Z" fill="black"/>
<path d="M13.1939 17.0743L14.6997 18.4129L11.8222 22.5693C11.5732 22.9289 11.1194 23.085 10.7018 22.9546C10.2843 22.8242 10 22.4375 10 22.0001V16.0001H4C3.62806 16.0001 3.28685 15.7936 3.11422 15.4642C2.9416 15.1347 2.9661 14.7367 3.17781 14.4309L5.86054 10.5558L7.36639 11.8943L5.90857 14.0001H11C11.5523 14.0001 12 14.4478 12 15.0001V18.7988L13.1939 17.0743Z" fill="black"/>
</svg>
