<svg width="24" height="24" viewBox="0 0 24 24" fill="none" xmlns="http://www.w3.org/2000/svg">
<path d="M14 15C14 15.5523 14.4477 16 15 16C15.5523 16 16 15.5523 16 15H14ZM20 15C20 15.5523 20.4477 16 21 16C21.5523 16 22 15.5523 22 15H20ZM16 18C16 17.4477 15.5523 17 15 17C14.4477 17 14 17.4477 14 18H16ZM22 18C22 17.4477 21.5523 17 21 17C20.4477 17 20 17.4477 20 18H22ZM19 16C19 15.4477 18.5523 15 18 15C17.4477 15 17 15.4477 17 16H19ZM17 17C17 17.5523 17.4477 18 18 18C18.5523 18 19 17.5523 19 17H17ZM5 21H4C4 21.5523 4.44772 22 5 22V21ZM5 3V2C4.44772 2 4 2.44772 4 3H5ZM19 3H20C20 2.44772 19.5523 2 19 2V3ZM11.5 22C12.0523 22 12.5 21.5523 12.5 21C12.5 20.4477 12.0523 20 11.5 20V22ZM18 8C18 8.55228 18.4477 9 19 9C19.5523 9 20 8.55228 20 8H18ZM16 15C16 13.8954 16.8954 13 18 13V11C15.7909 11 14 12.7909 14 15H16ZM18 13C19.1046 13 20 13.8954 20 15H22C22 12.7909 20.2091 11 18 11V13ZM14 18C14 20.2091 15.7909 22 18 22V20C16.8954 20 16 19.1046 16 18H14ZM18 22C20.2091 22 22 20.2091 22 18H20C20 19.1046 19.1046 20 18 20V22ZM17 16V17H19V16H17ZM6 21V3H4V21H6ZM5 4H19V2H5V4ZM11.5 20H5V22H11.5V20ZM18 3V8H20V3H18Z" fill="black"/>
</svg>
