<svg width="24" height="24" viewBox="0 0 24 24" fill="none" xmlns="http://www.w3.org/2000/svg">
<path d="M12.2062 10.7976L7.2283 15.778C6.67846 16.3281 6.67846 17.22 7.2283 17.7701C7.77814 18.3202 8.66961 18.3202 9.21946 17.7701L19.1752 7.80944C19.725 7.25937 20 6.53844 20 5.81749C20 5.09642 19.7251 4.37533 19.1752 3.82517C18.6254 3.27507 17.9048 3.00001 17.1841 3C16.4634 2.99999 15.7428 3.27505 15.1929 3.82517L5.23715 13.7858C4.41233 14.6111 3.99995 15.6927 4 16.7742C4.00005 17.8557 4.41243 18.9371 5.23715 19.7622C6.06192 20.5874 7.14292 21 8.22391 21C9.30489 21 10.3859 20.5874 11.2106 19.7622L16.1885 14.7819" stroke="black" stroke-width="2" stroke-linecap="round"/>
</svg>
