<svg width="24" height="24" viewBox="0 0 24 24" fill="none" xmlns="http://www.w3.org/2000/svg">
<path d="M20 4H21C21 3.44772 20.5523 3 20 3V4ZM20 20V21C20.5523 21 21 20.5523 21 20H20ZM4 20H3C3 20.5523 3.44772 21 4 21V20ZM4 4V3C3.44772 3 3 3.44772 3 4H4ZM17 9C17 8.44772 16.5523 8 16 8C15.4477 8 15 8.44772 15 9H17ZM15 15C15 15.5523 15.4477 16 16 16C16.5523 16 17 15.5523 17 15H15ZM19 4V20H21V4H19ZM20 19H4V21H20V19ZM5 20V4H3V20H5ZM4 5H20V3H4V5ZM15 9V15H17V9H15Z" fill="black"/>
<path d="M8 11.125C8.48325 11.125 8.875 11.5168 8.875 12C8.875 12.4832 8.48325 12.875 8 12.875C7.51675 12.875 7.125 12.4832 7.125 12C7.125 11.5168 7.51675 11.125 8 11.125ZM12 11.125C12.4832 11.125 12.875 11.5168 12.875 12C12.875 12.4832 12.4832 12.875 12 12.875C11.5168 12.875 11.125 12.4832 11.125 12C11.125 11.5168 11.5168 11.125 12 11.125Z" fill="black" stroke="black" stroke-width="0.75"/>
</svg>
