<svg width="24" height="24" viewBox="0 0 24 24" fill="none" xmlns="http://www.w3.org/2000/svg">
<path d="M13 13.0602C12.6755 13.0205 12.3419 13 12 13C7.8098 13 4.86894 16.0754 4.5 20H11.5M18 21.0833C18.25 21.0833 21 19.6667 21 17.75C21 16.4167 20.1667 15.75 19.3333 15.75C18.5 15.75 18 16.25 18 16.25C18 16.25 17.5 15.75 16.6667 15.75C15.8333 15.75 15 16.4167 15 17.75C15 19.6667 17.75 21.0833 18 21.0833ZM15.5 6.5C15.5 8.433 13.933 10 12 10C10.067 10 8.5 8.433 8.5 6.5C8.5 4.567 10.067 3 12 3C13.933 3 15.5 4.567 15.5 6.5Z" stroke="black" stroke-width="2" stroke-linecap="round" stroke-linejoin="round"/>
</svg>
