<svg width="24" height="24" viewBox="0 0 24 24" fill="none" xmlns="http://www.w3.org/2000/svg">
<path d="M22.7314 12C22.9016 12.2942 22.999 12.6358 22.999 13C22.999 14.1046 22.1035 15 20.999 15C20.5646 15 20.1625 14.8616 19.8346 14.6263M19.8346 14.6263C19.7385 14.5574 19.6487 14.4802 19.5664 14.3957L19.8346 14.6263ZM8.5 10.7501C8.5 10.8882 8.38808 11.0001 8.25 11.0001M8.5 10.7501C8.5 10.612 8.38808 10.5001 8.25 10.5001M8.5 10.7501H8M8.25 11.0001C8.11193 11.0001 8 10.8882 8 10.7501M8.25 11.0001V10.5001M8 10.7501C8 10.612 8.11193 10.5001 8.25 10.5001M8.46655 10.6251C8.53558 10.7447 8.49462 10.8976 8.37504 10.9666M8.46655 10.6251C8.39751 10.5055 8.24462 10.4645 8.12504 10.5336M8.46655 10.6251L8.03354 10.8751M8.37504 10.9666C8.25547 11.0356 8.10257 10.9947 8.03354 10.8751M8.37504 10.9666L8.12504 10.5336M8.03354 10.8751C7.9645 10.7555 8.00547 10.6026 8.12504 10.5336M8.37508 10.5336C8.49465 10.6026 8.53562 10.7555 8.46659 10.8751M8.37508 10.5336C8.25551 10.4646 8.10261 10.5055 8.03357 10.6251M8.37508 10.5336L8.12508 10.9666M8.46659 10.8751C8.39755 10.9947 8.24465 11.0356 8.12508 10.9666M8.46659 10.8751L8.03357 10.6251M8.12508 10.9666C8.00551 10.8976 7.96454 10.7447 8.03357 10.6251M5.5 4V7.5C4.782 8.148 4.338 9.01005 4 9.93505H2V15H4C4.525 15.908 5.094 16.473 6 17V20H10V18H14V20H18V16.463C19.225 15.364 20 13.775 20 12C20 8.686 17.314 6.00004 14 6.00004H9.474C9.474 6.00004 8.5 4 5.5 4Z" stroke="black" stroke-width="2" stroke-linecap="round" stroke-linejoin="round"/>
</svg>
