<svg width="24" height="24" viewBox="0 0 24 24" fill="none" xmlns="http://www.w3.org/2000/svg">
<path d="M17.6808 17.5284L17.0857 21C13.7063 20.3734 10.4749 18.7532 7.86085 16.1392C5.24683 13.5251 3.62655 10.2937 3 6.91429L6.47161 6.31915M17.6808 17.5284L18.4186 13.2248M17.6808 17.5284C16.0887 17.2273 14.5385 16.6501 13.107 15.797M6.47161 6.31915C6.9795 9.00456 8.27261 11.5708 10.3509 13.6491C11.1971 14.4952 12.124 15.2112 13.107 15.797M6.47161 6.31915L12.1069 5.3531M18.4186 13.2248C17.8725 12.482 16.9926 12 16 12C14.3431 12 13 13.3431 13 15C13 15.276 13.0373 15.5432 13.107 15.797M18.4186 13.2248L20 4L15.569 4.7596M15.569 4.7596C15.8389 5.10051 16 5.53144 16 6C16 7.10457 15.1046 8 14 8C12.8954 8 12 7.10457 12 6C12 5.77361 12.0376 5.55601 12.1069 5.3531M15.569 4.7596L12.1069 5.3531" stroke="black" stroke-width="2" stroke-linecap="square" stroke-linejoin="round"/>
</svg>
