<svg width="24" height="24" viewBox="0 0 24 24" fill="none" xmlns="http://www.w3.org/2000/svg">
<path d="M17.9924 7.86629L17.8593 8.85738L19.8415 9.12371L19.9746 8.13261L17.9924 7.86629ZM17.8102 6.01035L17.4347 6.93718L17.4348 6.9372L17.8102 6.01035ZM17.7697 5.99392L18.1452 5.0671L18.1451 5.06709L17.7697 5.99392ZM16.7262 4.97192L15.8049 5.36068L15.805 5.36095L16.7262 4.97192ZM16.7093 4.93192L17.6307 4.54316L17.6306 4.54291L16.7093 4.93192ZM14.6788 3.78291L14.8058 4.77482L14.8067 4.77471L14.6788 3.78291ZM14.6319 3.78891L14.505 2.797L14.5041 2.79711L14.6319 3.78891ZM13.2046 3.41405L13.8056 2.61481L13.8037 2.61337L13.2046 3.41405ZM13.1724 3.38997L12.5714 4.1892L12.5733 4.19064L13.1724 3.38997ZM12 3V2V3ZM10.8277 3.38997L10.2267 2.59074L10.2266 2.59078L10.8277 3.38997ZM10.7912 3.4174L11.3922 4.21665L11.3923 4.21658L10.7912 3.4174ZM9.3686 3.79097L9.24074 4.78276L9.24075 4.78276L9.3686 3.79097ZM9.32028 3.78474L9.44814 2.79295L9.44811 2.79294L9.32028 3.78474ZM7.29008 4.93438L8.21154 5.32284L8.21156 5.3228L7.29008 4.93438ZM7.27386 4.97284L6.3524 4.58437L6.35238 4.58442L7.27386 4.97284ZM6.22952 5.99569L5.85466 5.06861L5.85461 5.06863L6.22952 5.99569ZM6.19025 6.01157L6.56512 6.93865L6.56516 6.93864L6.19025 6.01157ZM4.02535 8.13314L4.15849 9.12424L6.14069 8.85796L6.00755 7.86686L4.02535 8.13314ZM19.5 8L20.4919 8.12716C20.5284 7.84212 20.4406 7.55512 20.2507 7.33938C20.0609 7.12364 19.7874 7 19.5 7V8ZM17.8333 21V22C18.3365 22 18.7612 21.6262 18.8252 21.1272L17.8333 21ZM6.16667 21L5.17478 21.1272C5.23876 21.6262 5.66355 22 6.16667 22V21ZM4.5 8V7C4.21262 7 3.93913 7.12364 3.74928 7.33938C3.55943 7.55512 3.47157 7.84212 3.50812 8.12716L4.5 8ZM19.9746 8.13261C20.06 7.49735 19.9285 6.85348 19.603 6.30171L17.8804 7.31785C17.9792 7.4854 18.0178 7.67791 17.9924 7.86629L19.9746 8.13261ZM19.603 6.30171C19.2778 5.75033 18.7783 5.32359 18.1857 5.08351L17.4348 6.9372C17.6259 7.01462 17.7813 7.1499 17.8804 7.31785L19.603 6.30171ZM18.1857 5.08353L18.1452 5.0671L17.3942 6.92075L17.4347 6.93718L18.1857 5.08353ZM18.1451 5.06709C18.0311 5.02091 17.9289 4.9537 17.8437 4.87029L16.4443 6.29912C16.7172 6.56645 17.0402 6.77736 17.3942 6.92076L18.1451 5.06709ZM17.8437 4.87029C17.7586 4.78692 17.6923 4.68907 17.6474 4.58289L15.805 5.36095C15.9537 5.71312 16.1713 6.03174 16.4443 6.29912L17.8437 4.87029ZM17.6475 4.58316L17.6307 4.54316L15.788 5.32068L15.8049 5.36068L17.6475 4.58316ZM17.6306 4.54291C17.3815 3.95301 16.9424 3.46441 16.3858 3.14942L15.4008 4.89006C15.5784 4.99059 15.7131 5.14328 15.7881 5.32092L17.6306 4.54291ZM16.3858 3.14942C15.8294 2.83462 15.1848 2.70944 14.551 2.79111L14.8067 4.77471C15.0137 4.74802 15.2228 4.78934 15.4008 4.89006L16.3858 3.14942ZM14.5519 2.791L14.505 2.797L14.7589 4.78082L14.8058 4.77482L14.5519 2.791ZM14.5041 2.79711C14.3803 2.81307 14.2545 2.80494 14.1342 2.77336L13.6262 4.70776C13.9957 4.80481 14.3808 4.82954 14.7598 4.78071L14.5041 2.79711ZM14.1342 2.77336C14.014 2.74178 13.9024 2.68759 13.8056 2.61481L12.6036 4.21328C12.909 4.44299 13.2566 4.6107 13.6262 4.70776L14.1342 2.77336ZM13.8037 2.61337L13.7715 2.58929L12.5733 4.19064L12.6055 4.21472L13.8037 2.61337ZM13.7734 2.59074C13.2624 2.20647 12.639 2 12 2V4C12.209 4 12.4098 4.06769 12.5714 4.1892L13.7734 2.59074ZM12 2C11.3611 2 10.7377 2.20647 10.2267 2.59074L11.4287 4.1892C11.5903 4.06769 11.7911 4 12 4V2ZM10.2266 2.59078L10.1901 2.61821L11.3923 4.21658L11.4288 4.18915L10.2266 2.59078ZM10.1902 2.61814C10.0941 2.69041 9.98331 2.74423 9.86387 2.77559L10.3718 4.71001C10.7406 4.61317 11.0874 4.44584 11.3922 4.21665L10.1902 2.61814ZM9.86387 2.77559C9.74442 2.80696 9.61947 2.81503 9.49645 2.79917L9.24075 4.78276C9.61885 4.8315 10.0031 4.80684 10.3718 4.71001L9.86387 2.77559ZM9.49646 2.79918L9.44814 2.79295L9.19242 4.77653L9.24074 4.78276L9.49646 2.79918ZM9.44811 2.79294C8.81421 2.71124 8.16938 2.83654 7.61302 3.15159L8.59853 4.89193C8.77642 4.79119 8.98546 4.74986 9.19244 4.77653L9.44811 2.79294ZM7.61302 3.15159C7.05635 3.46681 6.61738 3.95575 6.3686 4.54595L8.21156 5.3228C8.28643 5.14518 8.42096 4.99248 8.59853 4.89193L7.61302 3.15159ZM6.36861 4.54591L6.3524 4.58437L8.19533 5.3613L8.21154 5.32284L6.36861 4.54591ZM6.35238 4.58442C6.30761 4.69064 6.24128 4.78852 6.15616 4.87189L7.5556 6.30073C7.82891 6.03303 8.04668 5.71395 8.19535 5.36125L6.35238 4.58442ZM6.15616 4.87189C6.07099 4.95531 5.96871 5.0225 5.85466 5.06861L6.60438 6.92278C6.95889 6.77943 7.28232 6.56838 7.5556 6.30073L6.15616 4.87189ZM5.85461 5.06863L5.81535 5.08451L6.56516 6.93864L6.60443 6.92276L5.85461 5.06863ZM5.81538 5.0845C5.2225 5.32424 4.72278 5.7508 4.39732 6.30213L6.11962 7.31884C6.21867 7.15104 6.37407 7.01591 6.56512 6.93865L5.81538 5.0845ZM4.39732 6.30213C4.07162 6.85386 3.94 7.4978 4.02535 8.13314L6.00755 7.86686C5.98226 7.67861 6.0208 7.48624 6.11962 7.31884L4.39732 6.30213ZM18.5081 7.87284L16.8415 20.8728L18.8252 21.1272L20.4919 8.12716L18.5081 7.87284ZM7.15855 20.8728L5.49188 7.87284L3.50812 8.12716L5.17478 21.1272L7.15855 20.8728ZM4.5 9H9.5V7H4.5V9ZM10 20H6.16667V22H10V20ZM8.50074 8.03843L9.00074 21.0384L10.9993 20.9616L10.4993 7.96157L8.50074 8.03843ZM9.5 9H14.5V7H9.5V9ZM14.5 9H19.5V7H14.5V9ZM17.8333 20H14V22H17.8333V20ZM14 20H10V22H14V20ZM13.5007 7.96157L13.0007 20.9616L14.9993 21.0384L15.4993 8.03843L13.5007 7.96157Z" fill="black"/>
</svg>
