<svg width="24" height="24" viewBox="0 0 24 24" fill="none" xmlns="http://www.w3.org/2000/svg">
<path d="M7 11C7 11.5523 7.44772 12 8 12C8.55228 12 9 11.5523 9 11H7ZM10 10C10 10.5523 10.4477 11 11 11C11.5523 11 12 10.5523 12 10H10ZM13 10C13 10.5523 13.4477 11 14 11C14.5523 11 15 10.5523 15 10H13ZM20 8H21C21 7.44772 20.5523 7 20 7V8ZM16 12.5L16.3162 13.4487C16.7246 13.3126 17 12.9304 17 12.5H16ZM15.3717 12.7094L15.6879 13.6581V13.6581L15.3717 12.7094ZM12 16C12 16.5523 12.4477 17 13 17C13.5523 17 14 16.5523 14 16H12ZM7 7.5V11H9V7.5H7ZM6.5 7C6.77614 7 7 7.22386 7 7.5H9C9 6.11929 7.88071 5 6.5 5V7ZM6.5 5C5.11929 5 4 6.11929 4 7.5H6C6 7.22386 6.22386 7 6.5 7V5ZM19 13.5C19 17.0899 16.0899 20 12.5 20V22C17.1944 22 21 18.1944 21 13.5H19ZM12.5 20C8.91015 20 6 17.0899 6 13.5H4C4 18.1944 7.80558 22 12.5 22V20ZM10 5.5V10H12V5.5H10ZM9.5 5C9.77614 5 10 5.22386 10 5.5H12C12 4.11929 10.8807 3 9.5 3V5ZM9 5.5C9 5.22386 9.22386 5 9.5 5V3C8.11929 3 7 4.11929 7 5.5H9ZM12.5 4C12.7761 4 13 4.22386 13 4.5H15C15 3.11929 13.8807 2 12.5 2V4ZM12 4.5C12 4.22386 12.2239 4 12.5 4V2C11.1193 2 10 3.11929 10 4.5H12ZM15 10V5.5H13V10H15ZM15.5 5C15.7761 5 16 5.22386 16 5.5H18C18 4.11929 16.8807 3 15.5 3V5ZM15 5.5C15 5.22386 15.2239 5 15.5 5V3C14.1193 3 13 4.11929 13 5.5H15ZM20 7H19V9H20V7ZM15 11V12.5H17V11H15ZM15.6838 11.5513L15.0555 11.7607L15.6879 13.6581L16.3162 13.4487L15.6838 11.5513ZM15.0555 11.7607C13.2308 12.369 12 14.0766 12 16H14C14 14.9375 14.6799 13.9941 15.6879 13.6581L15.0555 11.7607ZM19 8V13.5H21V8H19ZM19 7C17.9762 7 17.0401 7.38597 16.3331 8.01876L17.6669 9.50903C18.0214 9.19174 18.4871 9 19 9V7ZM16.3331 8.01876C15.5164 8.74976 15 9.81524 15 11H17C17 10.4078 17.2562 9.87667 17.6669 9.50903L16.3331 8.01876ZM16 5.5V8.76389H18V5.5H16ZM4 7.5V13.5H6V7.5H4ZM7 5.5V7.5H9V5.5H7ZM10 4.5V5.5H12V4.5H10ZM13 4.5V5.5H15V4.5H13Z" fill="black"/>
</svg>
