<svg width="24" height="24" viewBox="0 0 24 24" fill="none" xmlns="http://www.w3.org/2000/svg">
<path d="M21 6L19.5 15H6L4 3H2M10.5 4.5L13 7M13 7L15.5 4.5M13 7L10.5 9.5M13 7L15.5 9.5M9 19C9 19.5523 8.55228 20 8 20C7.44772 20 7 19.5523 7 19C7 18.4477 7.44772 18 8 18C8.55228 18 9 18.4477 9 19ZM18 19C18 19.5523 17.5523 20 17 20C16.4477 20 16 19.5523 16 19C16 18.4477 16.4477 18 17 18C17.5523 18 18 18.4477 18 19Z" stroke="black" stroke-width="2" stroke-linecap="round" stroke-linejoin="round"/>
</svg>
