<svg width="24" height="24" viewBox="0 0 24 24" fill="none" xmlns="http://www.w3.org/2000/svg">
<path d="M4 4H20V20H4V4Z" stroke="black" stroke-width="2" stroke-linejoin="round"/>
<path d="M11.5383 7.60974C11.7091 7.1991 12.2909 7.1991 12.4617 7.60974L13.3375 9.71548C13.4095 9.8886 13.5723 10.0069 13.7592 10.0219L16.0325 10.2041C16.4758 10.2397 16.6556 10.7929 16.3178 11.0822L14.5858 12.5659C14.4434 12.6879 14.3812 12.8793 14.4247 13.0617L14.9539 15.28C15.0571 15.7126 14.5865 16.0546 14.2069 15.8227L12.2606 14.634C12.1006 14.5362 11.8994 14.5362 11.7394 14.634L9.7931 15.8227C9.41355 16.0546 8.94292 15.7126 9.04612 15.28L9.57528 13.0617C9.61878 12.8793 9.5566 12.6879 9.4142 12.5659L7.68217 11.0822C7.34441 10.7929 7.52417 10.2397 7.96749 10.2041L10.2408 10.0219C10.4277 10.0069 10.5905 9.8886 10.6625 9.71548L11.5383 7.60974Z" fill="black"/>
</svg>
