<svg width="24" height="24" viewBox="0 0 24 24" fill="none" xmlns="http://www.w3.org/2000/svg">
<path d="M3.5 15.9999L5.625 13.4999M20.5 15.9999L16.3849 12.1269M17.1044 7.00725L19.7192 6.36491L20.1368 3.39411L15.1854 2.69824L14.7679 5.66905L17.1044 7.00725ZM17.1044 7.00725L16.3849 12.1269M5.77625 7.30018L4.29085 7.50894L5.625 13.4999M5.77625 7.30018L5.63708 6.30991C5.48335 5.21609 6.24545 4.20476 7.33927 4.05103C8.43309 3.8973 9.44442 4.6594 9.59815 5.75322L9.73732 6.74349M5.77625 7.30018L9.73732 6.74349M9.73732 6.74349L11.2227 6.53473L11.618 12.8202M5.625 13.4999L7.75 10.9999L11.618 12.8202M11.618 12.8202L12 12.9999L16.25 11.9999L16.3849 12.1269M3 15.9999H21V19.9999H3V15.9999Z" stroke="black" stroke-width="2" stroke-linecap="round" stroke-linejoin="round"/>
</svg>
