<svg width="24" height="24" viewBox="0 0 24 24" fill="none" xmlns="http://www.w3.org/2000/svg">
<path d="M7 14L11.8333 12M11.8333 12L12 11.931M11.8333 12L12 12.069M11.8333 12L7 10M12 11.931L21.5 8L18.5 5.5L12 8.5V11.931ZM12 11.931V12.069M12 12.069V15.5L18.5 18.5L21.5 16L12 12.069ZM9 7C9 8.65685 7.65685 10 6 10C4.34315 10 3 8.65685 3 7C3 5.34315 4.34315 4 6 4C7.65685 4 9 5.34315 9 7ZM9 17C9 18.6569 7.65685 20 6 20C4.34315 20 3 18.6569 3 17C3 15.3431 4.34315 14 6 14C7.65685 14 9 15.3431 9 17Z" stroke="black" stroke-width="2" stroke-linejoin="round"/>
</svg>
