<svg width="24" height="24" viewBox="0 0 24 24" fill="none" xmlns="http://www.w3.org/2000/svg">
<path d="M5 4V3C4.47194 3 4.03489 3.41059 4.00195 3.93762L5 4ZM4 20L3.00195 19.9376L2.93555 21H4V20ZM20 20V21H21.0645L20.9981 19.9376L20 20ZM19 4L19.9981 3.93762C19.9651 3.41059 19.5281 3 19 3V4ZM16 8C16 7.44772 15.5523 7 15 7C14.4477 7 14 7.44772 14 8H16ZM10 8C10 7.44772 9.55228 7 9 7C8.44772 7 8 7.44772 8 8H10ZM4.00195 3.93762L3.00195 19.9376L4.99805 20.0624L5.99805 4.06238L4.00195 3.93762ZM4 21H20V19H4V21ZM20.9981 19.9376L19.9981 3.93762L18.0019 4.06238L19.0019 20.0624L20.9981 19.9376ZM19 3H5V5H19V3ZM14 8C14 9.10457 13.1046 10 12 10V12C14.2091 12 16 10.2091 16 8H14ZM12 10C10.8954 10 10 9.10457 10 8H8C8 10.2091 9.79086 12 12 12V10Z" fill="black"/>
</svg>
