<svg width="24" height="24" viewBox="0 0 24 24" fill="none" xmlns="http://www.w3.org/2000/svg">
<path d="M21.0026 17.4175C21.0026 19.4948 18.0223 21.0301 17.7513 21.0301C17.4804 21.0301 14.5 19.4948 14.5 17.4175C14.5 15.9725 15.4031 15.25 16.3063 15.25C17.2094 15.25 17.7513 15.7919 17.7513 15.7919C17.7513 15.7919 18.2932 15.25 19.1963 15.25C20.0995 15.25 21.0026 15.9725 21.0026 17.4175Z" stroke="black" stroke-width="2" stroke-linejoin="round"/>
<path d="M15 8V6C15 4.34315 13.6569 3 12 3C10.3431 3 9 4.34315 9 6V8M11.5 21H4.5L6.5 8H17.5L18.0385 11.5" stroke="black" stroke-width="2" stroke-linecap="round" stroke-linejoin="round"/>
</svg>
