<svg width="24" height="24" viewBox="0 0 24 24" fill="none" xmlns="http://www.w3.org/2000/svg">
<path d="M5 4V3C4.47194 3 4.03489 3.41059 4.00195 3.93762L5 4ZM4 20L3.00195 19.9376C2.98473 20.2131 3.08216 20.4835 3.27117 20.6847C3.46018 20.8859 3.72395 21 4 21V20ZM19 4L19.9981 3.93762C19.9651 3.41059 19.5281 3 19 3V4ZM11 21C11.5523 21 12 20.5523 12 20C12 19.4477 11.5523 19 11 19V21ZM18.453 11.2795C18.4875 11.8307 18.9622 12.2497 19.5134 12.2152C20.0647 12.1808 20.4836 11.706 20.4491 11.1548L18.453 11.2795ZM16 8C16 7.44772 15.5523 7 15 7C14.4477 7 14 7.44772 14 8H16ZM10 8C10 7.44772 9.55228 7 9 7C8.44772 7 8 7.44772 8 8H10ZM17.7503 15.7919L17.0432 16.499C17.2308 16.6865 17.4851 16.7919 17.7503 16.7919C18.0156 16.7919 18.2699 16.6865 18.4574 16.499L17.7503 15.7919ZM4.00195 3.93762L3.00195 19.9376L4.99805 20.0624L5.99805 4.06238L4.00195 3.93762ZM19 3H5V5H19V3ZM4 21H11V19H4V21ZM20.4491 11.1548L19.9981 3.93762L18.0019 4.06238L18.453 11.2795L20.4491 11.1548ZM14 8C14 9.10457 13.1046 10 12 10V12C14.2091 12 16 10.2091 16 8H14ZM12 10C10.8954 10 10 9.10457 10 8H8C8 10.2091 9.79086 12 12 12V10ZM17.7503 22.0301C17.9363 22.0301 18.0934 21.9785 18.1364 21.9648C18.213 21.9402 18.2901 21.91 18.3618 21.8792C18.5071 21.8169 18.6768 21.7328 18.8583 21.6319C19.2217 21.43 19.6716 21.1396 20.1145 20.7738C20.9463 20.0866 22.0017 18.9259 22.0017 17.4175H20.0017C20.0017 17.9864 19.5668 18.632 18.8407 19.2318C18.5046 19.5095 18.1586 19.7327 17.887 19.8836C17.751 19.9592 17.6434 20.0112 17.5739 20.0409C17.5382 20.0563 17.5234 20.061 17.5266 20.06C17.5282 20.0595 17.5439 20.0544 17.57 20.0487C17.5878 20.0448 17.656 20.0301 17.7503 20.0301V22.0301ZM22.0017 17.4175C22.0017 16.481 21.7047 15.6818 21.1667 15.1079C20.6335 14.5392 19.9152 14.25 19.1954 14.25V16.25C19.3786 16.25 19.5635 16.3221 19.7077 16.4758C19.847 16.6245 20.0017 16.9091 20.0017 17.4175H22.0017ZM19.1954 14.25C18.5393 14.25 18.0141 14.4474 17.6553 14.643C17.4758 14.741 17.3341 14.8405 17.2328 14.9197C17.182 14.9595 17.1406 14.9948 17.1091 15.0229C17.0933 15.0371 17.0799 15.0495 17.0689 15.0598C17.0634 15.065 17.0585 15.0697 17.0543 15.0739C17.0521 15.076 17.0501 15.0779 17.0483 15.0798C17.0474 15.0807 17.0465 15.0815 17.0456 15.0824C17.0452 15.0828 17.0448 15.0832 17.0444 15.0836C17.0442 15.0838 17.0439 15.0841 17.0438 15.0842C17.0435 15.0845 17.0432 15.0848 17.7503 15.7919C18.4574 16.499 18.4572 16.4993 18.4569 16.4996C18.4568 16.4997 18.4565 16.4999 18.4563 16.5001C18.4559 16.5005 18.4556 16.5008 18.4552 16.5012C18.4545 16.5019 18.4538 16.5026 18.4532 16.5032C18.4519 16.5045 18.4507 16.5057 18.4496 16.5068C18.4474 16.5089 18.4457 16.5105 18.4444 16.5118C18.4418 16.5142 18.4409 16.515 18.4417 16.5143C18.4433 16.5128 18.4514 16.5057 18.4654 16.4947C18.494 16.4724 18.5442 16.4364 18.613 16.3988C18.751 16.3236 18.9483 16.25 19.1954 16.25V14.25ZM17.7503 20.0301C17.8447 20.0301 17.9129 20.0448 17.9306 20.0487C17.9568 20.0544 17.9725 20.0595 17.9741 20.06C17.9772 20.061 17.9625 20.0563 17.9268 20.0409C17.8573 20.0112 17.7497 19.9592 17.6137 19.8836C17.3421 19.7327 16.9961 19.5095 16.66 19.2318C15.9338 18.632 15.499 17.9864 15.499 17.4175H13.499C13.499 18.9259 14.5544 20.0866 15.3862 20.7738C15.829 21.1396 16.2789 21.43 16.6424 21.6319C16.8239 21.7328 16.9936 21.8169 17.1389 21.8792C17.2106 21.91 17.2877 21.9402 17.3643 21.9648C17.4073 21.9785 17.5644 22.0301 17.7503 22.0301V20.0301ZM15.499 17.4175C15.499 16.9091 15.6537 16.6245 15.793 16.4758C15.9372 16.3221 16.122 16.25 16.3053 16.25V14.25C15.5854 14.25 14.8671 14.5392 14.334 15.1079C13.796 15.6818 13.499 16.481 13.499 17.4175H15.499ZM16.3053 16.25C16.5524 16.25 16.7497 16.3236 16.8877 16.3988C16.9565 16.4364 17.0067 16.4724 17.0352 16.4947C17.0493 16.5057 17.0573 16.5128 17.059 16.5143C17.0597 16.515 17.0589 16.5142 17.0563 16.5118C17.055 16.5105 17.0533 16.5089 17.0511 16.5068C17.05 16.5057 17.0488 16.5045 17.0475 16.5032C17.0468 16.5026 17.0462 16.5019 17.0454 16.5012C17.0451 16.5008 17.0447 16.5005 17.0444 16.5001C17.0442 16.4999 17.0439 16.4997 17.0438 16.4996C17.0435 16.4993 17.0432 16.499 17.7503 15.7919C18.4574 15.0848 18.4572 15.0845 18.4569 15.0842C18.4568 15.0841 18.4565 15.0838 18.4563 15.0836C18.4559 15.0832 18.4555 15.0828 18.455 15.0824C18.4542 15.0815 18.4533 15.0807 18.4524 15.0798C18.4506 15.0779 18.4486 15.076 18.4464 15.0739C18.4421 15.0697 18.4373 15.065 18.4318 15.0598C18.4208 15.0495 18.4074 15.0371 18.3916 15.0229C18.3601 14.9948 18.3187 14.9595 18.2679 14.9197C18.1666 14.8405 18.0249 14.741 17.8454 14.643C17.4866 14.4474 16.9614 14.25 16.3053 14.25V16.25Z" fill="black"/>
</svg>
