<svg width="24" height="24" viewBox="0 0 24 24" fill="none" xmlns="http://www.w3.org/2000/svg">
<path d="M15 8V6C15 4.34315 13.6569 3 12 3C10.3431 3 9 4.34315 9 6V8M19.8284 20.8284L14.1716 15.1716M19.8284 20.8284C20.5858 20.0711 20.9759 19.0856 20.9989 18.0933C21.0234 17.0387 20.6332 15.9763 19.8284 15.1716C19.0711 14.4142 18.0856 14.024 17.0931 14.0011C16.0386 13.9767 14.9763 14.3668 14.1716 15.1716M19.8284 20.8284C19.0711 21.5858 18.0856 21.976 17.0931 21.9989C16.0386 22.0233 14.9763 21.6332 14.1716 20.8284C13.4142 20.0711 13.0241 19.0856 13.0011 18.0933C12.9766 17.0387 13.3668 15.9763 14.1716 15.1716M9 21H4.5L6.5 8H17.5L17.8077 10" stroke="black" stroke-width="2" stroke-linecap="round" stroke-linejoin="round"/>
</svg>
