<svg width="24" height="24" viewBox="0 0 24 24" fill="none" xmlns="http://www.w3.org/2000/svg">
<path d="M11 5H3V19H11M11 5H21V19H11M11 5V19" stroke="black" stroke-width="2" stroke-linecap="square" stroke-linejoin="round"/>
<path d="M7 14.375C7.48325 14.375 7.875 14.7668 7.875 15.25C7.875 15.7332 7.48325 16.125 7 16.125C6.51675 16.125 6.125 15.7332 6.125 15.25C6.125 14.7668 6.51675 14.375 7 14.375ZM7 11.125C7.48325 11.125 7.875 11.5168 7.875 12C7.875 12.4832 7.48325 12.875 7 12.875C6.51675 12.875 6.125 12.4832 6.125 12C6.125 11.5168 6.51675 11.125 7 11.125ZM7 7.875C7.48325 7.875 7.875 8.26675 7.875 8.75C7.875 9.23325 7.48325 9.625 7 9.625C6.51675 9.625 6.125 9.23325 6.125 8.75C6.125 8.26675 6.51675 7.875 7 7.875Z" fill="black" stroke="black" stroke-width="0.75"/>
</svg>
