<svg width="24" height="24" viewBox="0 0 24 24" fill="none" xmlns="http://www.w3.org/2000/svg">
<path d="M8.0001 9.69066V14.3094M8.0001 9.69066L12.0002 7.38123M8.0001 9.69066V4.3094M8.0001 14.3094L12.0002 16.6188M8.0001 14.3094L3.33984 11.6188M12.0002 16.6188L16.0001 14.3095M12.0002 16.6188L7.3399 19.3094M16.0001 14.3095V9.6906M16.0001 14.3095V19.6906M16.0001 9.6906L12.0002 7.38123M16.0001 9.6906L20.6604 12.3812M12.0002 7.38123L16.6604 4.69063M8.0001 4.3094L3.33984 7V11.6188M8.0001 4.3094L12.0001 2L16.6604 4.69063M16.6604 4.69063L20.6604 7V12.3812M20.6604 12.3812V17L16.0001 19.6906M16.0001 19.6906L12.0001 22L7.3399 19.3094M7.3399 19.3094L3.33984 17V11.6188" stroke="black" stroke-width="2" stroke-linecap="square" stroke-linejoin="round"/>
</svg>
