<svg width="24" height="24" viewBox="0 0 24 24" fill="none" xmlns="http://www.w3.org/2000/svg">
<path d="M5 3V2C4.44772 2 4 2.44772 4 3H5ZM19 3H20C20 2.44772 19.5523 2 19 2V3ZM19 21V22C19.5523 22 20 21.5523 20 21H19ZM5 21H4C4 21.5523 4.44772 22 5 22V21ZM10 6C9.44772 6 9 6.44772 9 7C9 7.55228 9.44772 8 10 8V6ZM14 8C14.5523 8 15 7.55228 15 7C15 6.44772 14.5523 6 14 6V8ZM5 4H19V2H5V4ZM18 3V21H20V3H18ZM19 20H5V22H19V20ZM6 21V3H4V21H6ZM14 14C14 15.1046 13.1046 16 12 16V18C14.2091 18 16 16.2091 16 14H14ZM12 16C10.8954 16 10 15.1046 10 14H8C8 16.2091 9.79086 18 12 18V16ZM10 14C10 12.8954 10.8954 12 12 12V10C9.79086 10 8 11.7909 8 14H10ZM12 12C13.1046 12 14 12.8954 14 14H16C16 11.7909 14.2091 10 12 10V12ZM10 8H14V6H10V8Z" fill="black"/>
</svg>
