<svg width="24" height="24" viewBox="0 0 24 24" fill="none" xmlns="http://www.w3.org/2000/svg">
<path d="M13 9.00022C13 8.44793 12.5523 8.00022 12 8.00021C11.4478 8.00021 11 8.44792 11 9.00021L13 9.00022ZM11 15C11 15.5523 11.4477 16 12 16C12.5523 16 13 15.5523 13 15L11 15ZM15 13.0002C15.5523 13.0002 16 12.5525 16 12.0003C16.0001 11.448 15.5524 11.0002 15.0001 11.0002L15 13.0002ZM9.00005 11C8.44777 11 8.00004 11.4477 8.00002 11.9999C7.99999 12.5522 8.44769 13 8.99998 13L9.00005 11ZM20 4H21C21 3.44772 20.5523 3 20 3V4ZM20 20V21C20.5523 21 21 20.5523 21 20H20ZM4 20H3C3 20.5523 3.44772 21 4 21V20ZM4 4V3C3.44772 3 3 3.44772 3 4H4ZM11 9.00021L11 15L13 15L13 9.00022L11 9.00021ZM15.0001 11.0002L9.00005 11L8.99998 13L15 13.0002L15.0001 11.0002ZM19 4V20H21V4H19ZM20 19H4V21H20V19ZM5 20V4H3V20H5ZM4 5H20V3H4V5Z" fill="black"/>
</svg>
