<svg width="24" height="24" viewBox="0 0 24 24" fill="none" xmlns="http://www.w3.org/2000/svg">
<path d="M20 4H21C21 3.44772 20.5523 3 20 3V4ZM20 20V21C20.5523 21 21 20.5523 21 20H20ZM4 20H3C3 20.5523 3.44772 21 4 21V20ZM4 4V3C3.44772 3 3 3.44772 3 4H4ZM10.9968 14.25L10.2897 14.9571C10.4772 15.1447 10.7315 15.25 10.9968 15.25C11.262 15.25 11.5163 15.1447 11.7039 14.9571L10.9968 14.25ZM16.2039 10.4571C16.5944 10.0666 16.5944 9.43343 16.2039 9.0429C15.8133 8.65238 15.1802 8.65238 14.7897 9.0429L16.2039 10.4571ZM9.70387 11.5429C9.31334 11.1524 8.68018 11.1524 8.28966 11.5429C7.89913 11.9334 7.89913 12.5666 8.28966 12.9571L9.70387 11.5429ZM19 4V20H21V4H19ZM20 19H4V21H20V19ZM5 20V4H3V20H5ZM4 5H20V3H4V5ZM11.7039 14.9571L16.2039 10.4571L14.7897 9.0429L10.2897 13.5429L11.7039 14.9571ZM8.28966 12.9571L10.2897 14.9571L11.7039 13.5429L9.70387 11.5429L8.28966 12.9571Z" fill="black"/>
</svg>
