<svg width="24" height="24" viewBox="0 0 24 24" fill="none" xmlns="http://www.w3.org/2000/svg">
<path d="M20 4H21C21 3.44772 20.5523 3 20 3V4ZM20 20V21C20.5523 21 21 20.5523 21 20H20ZM4 20H3C3 20.5523 3.44772 21 4 21V20ZM4 4V3C3.44772 3 3 3.44772 3 4H4ZM11 10C10.4477 10 10 10.4477 10 11C10 11.5523 10.4477 12 11 12V10ZM12 11H13C13 10.4477 12.5523 10 12 10V11ZM11 16C11 16.5523 11.4477 17 12 17C12.5523 17 13 16.5523 13 16H11ZM19 4V20H21V4H19ZM20 19H4V21H20V19ZM5 20V4H3V20H5ZM4 5H20V3H4V5ZM11 12H12V10H11V12ZM11 11V16H13V11H11Z" fill="black"/>
<path d="M12 7.25C12.4142 7.25 12.75 7.58579 12.75 8C12.75 8.41421 12.4142 8.75 12 8.75C11.5858 8.75 11.25 8.41421 11.25 8C11.25 7.58579 11.5858 7.25 12 7.25Z" fill="black" stroke="black" stroke-width="0.5"/>
</svg>
