<svg width="24" height="24" viewBox="0 0 24 24" fill="none" xmlns="http://www.w3.org/2000/svg">
<path d="M15 13.0002C15.5523 13.0002 16 12.5525 16 12.0003C16.0001 11.448 15.5524 11.0002 15.0001 11.0002L15 13.0002ZM9.00005 11C8.44777 11 8.00004 11.4477 8.00002 11.9999C7.99999 12.5522 8.44769 13 8.99998 13L9.00005 11ZM20 4H21C21 3.44772 20.5523 3 20 3V4ZM20 20V21C20.5523 21 21 20.5523 21 20H20ZM4 20H3C3 20.5523 3.44772 21 4 21V20ZM4 4V3C3.44772 3 3 3.44772 3 4H4ZM15.0001 11.0002L9.00005 11L8.99998 13L15 13.0002L15.0001 11.0002ZM19 4V20H21V4H19ZM20 19H4V21H20V19ZM5 20V4H3V20H5ZM4 5H20V3H4V5Z" fill="black"/>
</svg>
