<svg width="24" height="24" viewBox="0 0 24 24" fill="none" xmlns="http://www.w3.org/2000/svg">
<path d="M13.9251 14.9235C14.8739 14.2974 15.5 13.2218 15.5 12C15.5 10.067 13.933 8.5 12 8.5C10.067 8.5 8.5 10.067 8.5 12C8.5 12.5416 8.62302 13.0545 8.84264 13.5122M13.9251 14.9235C12.2026 14.292 10.6925 13.3841 8.84264 13.5122M13.9251 14.9235C15.3244 15.4365 16.8639 15.7671 18.8396 15.2119M8.84264 13.5122C7.7692 13.5865 6.58136 14.0097 5.17121 15.0381M5.17121 15.0381C5.16176 15.5372 4.96662 16.0334 4.58579 16.4142L4 17V20H7L7.58579 19.4142C8.36683 18.6332 9.63316 18.6332 10.4142 19.4142L11 20H13L13.5858 19.4142C14.3668 18.6332 15.6332 18.6332 16.4142 19.4142L17 20H20V17L19.4142 16.4142C19.0777 16.0777 18.8861 15.651 18.8396 15.2119M5.17121 15.0381C5.18115 14.5136 4.986 13.986 4.58579 13.5858L4 13V11L4.58579 10.4142C5.36684 9.63316 5.36683 8.36683 4.58579 7.58579L4 7V4H7L7.58579 4.58579C8.36684 5.36684 9.63317 5.36683 10.4142 4.58579L11 4H13L13.5858 4.58579C14.3668 5.36684 15.6332 5.36683 16.4142 4.58579L17 4H20V7L19.4142 7.58579C18.6332 8.36684 18.6332 9.63317 19.4142 10.4142L20 11V13L19.4142 13.5858C18.9697 14.0303 18.7782 14.6319 18.8396 15.2119" stroke="black" stroke-width="2" stroke-linejoin="round"/>
</svg>
