<svg width="24" height="24" viewBox="0 0 24 24" fill="none" xmlns="http://www.w3.org/2000/svg">
<path d="M5 3V2C4.44772 2 4 2.44772 4 3H5ZM19 3H20C20 2.44772 19.5523 2 19 2V3ZM19 21V22C19.5523 22 20 21.5523 20 21H19ZM5 21H4C4 21.5523 4.44772 22 5 22V21ZM5 15V14H4V15H5ZM19 15H20V14H19V15ZM5 4H19V2H5V4ZM18 3V21H20V3H18ZM19 20H5V22H19V20ZM6 21V3H4V21H6ZM5 16H19V14H5V16ZM4 15V18H6V15H4ZM18 15V18H20V15H18Z" fill="black"/>
<path d="M13 17.25C13.4142 17.25 13.75 17.5858 13.75 18C13.75 18.4142 13.4142 18.75 13 18.75C12.5858 18.75 12.25 18.4142 12.25 18C12.25 17.5858 12.5858 17.25 13 17.25ZM16 17.25C16.4142 17.25 16.75 17.5858 16.75 18C16.75 18.4142 16.4142 18.75 16 18.75C15.5858 18.75 15.25 18.4142 15.25 18C15.25 17.5858 15.5858 17.25 16 17.25Z" fill="black" stroke="black" stroke-width="0.5" stroke-linecap="square"/>
</svg>
