<svg width="24" height="24" viewBox="0 0 24 24" fill="none" xmlns="http://www.w3.org/2000/svg">
<path d="M11.9988 2L14.471 4.39155L17.8767 3.90983L18.471 7.29772L21.5094 8.90983L19.9988 12L21.5094 15.0902L18.471 16.7023L17.8767 20.0902L14.471 19.6085L11.9988 22L9.52671 19.6085L6.12099 20.0902L5.52671 16.7023L2.48828 15.0902L3.99885 12L2.48828 8.90983L5.52671 7.29772L6.12099 3.90983L9.52671 4.39155L11.9988 2Z" stroke="black" stroke-width="2" stroke-linejoin="round"/>
<path d="M11.5533 7.90848C11.7367 7.53686 12.2666 7.53686 12.45 7.90848L13.3548 9.74172C13.4276 9.88929 13.5684 9.99158 13.7313 10.0152L15.7544 10.3092C16.1645 10.3688 16.3282 10.8728 16.0315 11.1621L14.5675 12.589C14.4497 12.7039 14.3959 12.8694 14.4237 13.0316L14.7693 15.0465C14.8394 15.455 14.4107 15.7665 14.0439 15.5736L12.2343 14.6223C12.0887 14.5457 11.9147 14.5457 11.769 14.6223L9.95947 15.5736C9.59266 15.7665 9.16394 15.455 9.234 15.0465L9.57958 13.0316C9.6074 12.8694 9.55363 12.7039 9.43579 12.589L7.97185 11.1621C7.67509 10.8728 7.83885 10.3688 8.24896 10.3092L10.2721 10.0152C10.4349 9.99158 10.5757 9.88929 10.6485 9.74172L11.5533 7.90848Z" fill="black"/>
</svg>
