<svg width="24" height="24" viewBox="0 0 24 24" fill="none" xmlns="http://www.w3.org/2000/svg">
<path d="M3 3V2C2.44772 2 2 2.44772 2 3H3ZM3 12H2C2 12.2652 2.10536 12.5196 2.29289 12.7071L3 12ZM12 21L11.2929 21.7071C11.6834 22.0976 12.3166 22.0976 12.7071 21.7071L12 21ZM21 12L21.7071 12.7071C22.0976 12.3166 22.0976 11.6834 21.7071 11.2929L21 12ZM12 3L12.7071 2.29289C12.5196 2.10536 12.2652 2 12 2V3ZM7.4 6.5H6.4V8.5H7.4V6.5ZM7.6 8.5H8.6V6.5H7.6V8.5ZM2 3V12H4V3H2ZM2.29289 12.7071L11.2929 21.7071L12.7071 20.2929L3.70711 11.2929L2.29289 12.7071ZM12.7071 21.7071L21.7071 12.7071L20.2929 11.2929L11.2929 20.2929L12.7071 21.7071ZM21.7071 11.2929L12.7071 2.29289L11.2929 3.70711L20.2929 12.7071L21.7071 11.2929ZM12 2H3V4H12V2ZM7 7.5C7 7.22386 7.22386 7 7.5 7V9C8.32843 9 9 8.32843 9 7.5H7ZM7.5 7C7.77614 7 8 7.22386 8 7.5H6C6 8.32843 6.67157 9 7.5 9V7ZM8 7.5C8 7.77614 7.77614 8 7.5 8V6C6.67157 6 6 6.67157 6 7.5H8ZM7.5 8C7.22386 8 7 7.77614 7 7.5H9C9 6.67157 8.32843 6 7.5 6V8ZM7.4 8.5H7.6V6.5H7.4V8.5Z" fill="black"/>
</svg>
