<svg width="24" height="24" viewBox="0 0 24 24" fill="none" xmlns="http://www.w3.org/2000/svg">
<path d="M11.0001 9.5L10.0001 2H14.0001L13.0001 9.5M10.335 14.1159L4.33984 18.7319L2.33984 15.2678L9.33503 12.3839M14.6652 12.3838L21.6604 15.2678L19.6604 18.7319L13.6652 14.1159M9.00012 20.4879C9.93846 20.8196 10.9482 21 12.0001 21C13.052 21 14.0618 20.8196 15.0001 20.4879M6.14954 5.15807C5.39315 5.80486 4.73198 6.58911 4.20603 7.50008C3.68008 8.41106 3.33148 9.37577 3.14954 10.3542M20.8507 10.3541C20.6688 9.37566 20.3202 8.41095 19.7942 7.49998C19.2683 6.589 18.6071 5.80476 17.8507 5.15796M14.5001 12C14.5001 13.3807 13.3808 14.5 12.0001 14.5C10.6194 14.5 9.50012 13.3807 9.50012 12C9.50012 10.6193 10.6194 9.5 12.0001 9.5C13.3808 9.5 14.5001 10.6193 14.5001 12Z" stroke="black" stroke-width="2" stroke-linecap="round" stroke-linejoin="round"/>
</svg>
