<svg width="24" height="24" viewBox="0 0 24 24" fill="none" xmlns="http://www.w3.org/2000/svg">
<path fill-rule="evenodd" clip-rule="evenodd" d="M10 10C10 9.44772 10.4477 9 11 9H21C21.5523 9 22 9.44772 22 10V20C22 20.5523 21.5523 21 21 21H11C10.4477 21 10 20.5523 10 20V10ZM12.5858 19H12V11H20V15.5858L18.7071 14.2929C18.3166 13.9024 17.6834 13.9024 17.2929 14.2929L12.5858 19ZM15.4142 19H20V18.4142L18 16.4142L15.4142 19Z" fill="black"/>
<path d="M15.5 13.25C15.5 13.9404 14.9404 14.5 14.25 14.5C13.5596 14.5 13 13.9404 13 13.25C13 12.5596 13.5596 12 14.25 12C14.9404 12 15.5 12.5596 15.5 13.25Z" fill="black"/>
<path fill-rule="evenodd" clip-rule="evenodd" d="M1 4C1 3.44772 1.44772 3 2 3H10C10.5523 3 11 3.44772 11 4V5C11 5.55228 10.5523 6 10 6C9.44772 6 9 5.55228 9 5H7V12C7.55228 12 8 12.4477 8 13C8 13.5523 7.55228 14 7 14H5C4.44772 14 4 13.5523 4 13C4 12.4477 4.44772 12 5 12V5H3C3 5.55228 2.55228 6 2 6C1.44772 6 1 5.55228 1 5V4Z" fill="black"/>
<path d="M20.7552 2.15769C20.6501 1.94744 20.35 1.94744 20.2449 2.15769C19.5905 3.46646 19.4665 3.5905 18.1577 4.24488C17.9474 4.35001 17.9474 4.65005 18.1577 4.75518C19.4665 5.40956 19.5905 5.5336 20.2449 6.84237C20.35 7.05262 20.6501 7.05262 20.7552 6.84237C21.4096 5.5336 21.5336 5.40956 22.8424 4.75518C23.0526 4.65005 23.0526 4.35001 22.8424 4.24488C21.5336 3.5905 21.4096 3.46646 20.7552 2.15769Z" fill="black"/>
<path d="M15.2644 4.16345C15.1554 3.94552 14.8444 3.94552 14.7355 4.16345C14.2499 5.13469 14.1346 5.24991 13.1634 5.73553C12.9455 5.8445 12.9455 6.1555 13.1634 6.26447C14.1346 6.75009 14.2499 6.86532 14.7355 7.83655C14.8444 8.05448 15.1554 8.05448 15.2644 7.83655C15.75 6.86532 15.8653 6.75009 16.8365 6.26447C17.0544 6.1555 17.0544 5.8445 16.8365 5.73553C15.8653 5.24991 15.75 5.13468 15.2644 4.16345Z" fill="black"/>
<path d="M4.75508 16.1577C4.64996 15.9474 4.34992 15.9474 4.24479 16.1577C3.59042 17.4664 3.46638 17.5905 2.15763 18.2449C1.94738 18.35 1.94738 18.65 2.15763 18.7551C3.46638 19.4095 3.59042 19.5336 4.24479 20.8423C4.34992 21.0526 4.64996 21.0526 4.75508 20.8423C5.40946 19.5336 5.5335 19.4095 6.84225 18.7551C7.0525 18.65 7.0525 18.35 6.84225 18.2449C5.5335 17.5905 5.40946 17.4664 4.75508 16.1577Z" fill="black"/>
</svg>
