<svg width="24" height="24" viewBox="0 0 24 24" fill="none" xmlns="http://www.w3.org/2000/svg">
<path d="M10.5475 20.9433L11.0012 21C11.9658 18.6912 13.4072 16.6966 15.108 14.9025C15.6664 14.3134 16.0012 13.5419 16.0012 12.7302V6.27489C16.0012 5.49727 15.5542 4.77858 14.8235 4.5125C12.3439 3.60958 9.75014 3.41643 7.12803 3.64366C5.52677 3.78243 4.27198 5.01901 3.91916 6.58707L3.07441 10.3415C2.6524 12.2171 4.07875 14.0001 6.00124 14.0001H9.00125L8.05227 17.0842C7.50387 18.8665 8.69714 20.712 10.5475 20.9433Z" stroke="black" stroke-width="2" stroke-linejoin="round"/>
<path d="M21 14H16V4H21V14Z" stroke="black" stroke-width="2" stroke-linejoin="round"/>
</svg>
