<svg width="24" height="24" viewBox="0 0 24 24" fill="none" xmlns="http://www.w3.org/2000/svg">
<path d="M2.32525 18.4252C3.0182 18.4252 3.40798 18.0787 3.65051 17.2472L4.30881 15.2982H8.8216L9.4799 17.2731C9.71376 18.0873 10.1035 18.4252 10.8398 18.4252C11.602 18.4252 12.1477 17.9141 12.1477 17.1952C12.1477 16.9353 12.1044 16.7015 11.9832 16.3637L8.55308 7.06088C8.18063 6.03879 7.5743 5.58838 6.55221 5.58838C5.56476 5.58838 4.94978 6.05612 4.58598 7.06955L1.17324 16.3637C1.06063 16.6841 1 16.9786 1 17.1952C1 17.9488 1.51105 18.4252 2.32525 18.4252ZM4.88048 13.2714L6.50024 8.15227H6.56087L8.21527 13.2714H4.88048Z" fill="black"/>
<path d="M16.6643 18.4078C17.825 18.4078 18.9857 17.8275 19.5054 16.84H19.5574V17.3164C19.6093 18.0614 20.0857 18.4425 20.77 18.4425C21.489 18.4425 22 18.0094 22 17.1692V11.8768C22 10.0059 20.4495 8.77592 18.0675 8.77592C16.1446 8.77592 14.6548 9.4602 14.2217 10.5689C14.1351 10.7595 14.0918 10.9414 14.0918 11.1406C14.0918 11.7123 14.5335 12.1107 15.1485 12.1107C15.5556 12.1107 15.8761 11.9548 16.1533 11.643C16.7163 10.9154 17.184 10.6642 17.9549 10.6642C18.9077 10.6642 19.5141 11.1666 19.5141 12.0328V12.6477L17.1754 12.7863C14.854 12.9249 13.5548 13.9037 13.5548 15.5928C13.5548 17.2645 14.8973 18.4078 16.6643 18.4078ZM17.4959 16.5802C16.647 16.5802 16.0753 16.1471 16.0753 15.4542C16.0753 14.7959 16.6124 14.3714 17.5565 14.3021L19.5141 14.1809V14.8565C19.5141 15.8613 18.6046 16.5802 17.4959 16.5802Z" fill="black"/>
</svg>
