<svg width="24" height="24" viewBox="0 0 24 24" fill="none" xmlns="http://www.w3.org/2000/svg">
<path d="M6 21L5.00221 21.0665C5.03723 21.5918 5.47354 22 6 22V21ZM18 21V22C18.5265 22 18.9628 21.5918 18.9978 21.0665L18 21ZM3 5C2.44772 5 2 5.44772 2 6C2 6.55228 2.44772 7 3 7V5ZM21 7C21.5523 7 22 6.55228 22 6C22 5.44772 21.5523 5 21 5V7ZM14.9056 6.24926C15.0432 6.78411 15.5884 7.1061 16.1233 6.96844C16.6581 6.83078 16.9801 6.28559 16.8424 5.75074L14.9056 6.24926ZM4.00221 6.06652L5.00221 21.0665L6.99779 20.9335L5.99779 5.93348L4.00221 6.06652ZM6 22H18V20H6V22ZM18.9978 21.0665L19.9978 6.06652L18.0022 5.93348L17.0022 20.9335L18.9978 21.0665ZM19 5H5V7H19V5ZM3 7H5V5H3V7ZM19 7H21V5H19V7ZM12 4C13.3965 4 14.5725 4.95512 14.9056 6.24926L16.8424 5.75074C16.2874 3.59442 14.3312 2 12 2V4ZM9.09447 6.24926C9.42756 4.95512 10.6035 4 12 4V2C9.66885 2 7.7126 3.59442 7.1576 5.75074L9.09447 6.24926Z" fill="black"/>
</svg>
