<svg width="24" height="24" viewBox="0 0 24 24" fill="none" xmlns="http://www.w3.org/2000/svg">
<path d="M12 14C11.4477 14 11 14.4477 11 15C11 15.5523 11.4477 16 12 16V14ZM12.01 16C12.5623 16 13.01 15.5523 13.01 15C13.01 14.4477 12.5623 14 12.01 14V16ZM13 10C13 9.44772 12.5523 9 12 9C11.4477 9 11 9.44772 11 10H13ZM11 12C11 12.5523 11.4477 13 12 13C12.5523 13 13 12.5523 13 12H11ZM12 3L12.8599 2.48946C12.6797 2.18601 12.3529 2 12 2C11.6471 2 11.3203 2.18601 11.1401 2.48946L12 3ZM2.5 19L1.64015 18.4895C1.45663 18.7985 1.45312 19.1823 1.63094 19.4947C1.80876 19.8071 2.14055 20 2.5 20L2.5 19ZM21.5 19V20C21.8594 20 22.1912 19.8071 22.3691 19.4947C22.5469 19.1823 22.5434 18.7985 22.3599 18.4895L21.5 19ZM11.25 15C11.25 14.5858 11.5858 14.25 12 14.25V16.25C12.6904 16.25 13.25 15.6904 13.25 15H11.25ZM12 14.25C12.4142 14.25 12.75 14.5858 12.75 15H10.75C10.75 15.6904 11.3096 16.25 12 16.25V14.25ZM12.75 15C12.75 15.4142 12.4142 15.75 12 15.75V13.75C11.3096 13.75 10.75 14.3096 10.75 15H12.75ZM12 15.75C11.5858 15.75 11.25 15.4142 11.25 15H13.25C13.25 14.3096 12.6904 13.75 12 13.75V15.75ZM12 16H12.01V14H12V16ZM11 10V12H13V10H11ZM11.1401 2.48946L1.64015 18.4895L3.35985 19.5105L12.8599 3.51054L11.1401 2.48946ZM2.5 20H21.5V18H2.5V20ZM22.3599 18.4895L12.8599 2.48946L11.1401 3.51054L20.6401 19.5105L22.3599 18.4895Z" fill="black"/>
</svg>
