<svg width="24" height="24" viewBox="0 0 24 24" fill="none" xmlns="http://www.w3.org/2000/svg">
<path d="M8 7C8 4.79086 9.79086 3 12 3C14.2091 3 16 4.79086 16 7M4 20L7.97576 13.705M7.97576 13.705L10 10.5C11.36 10.2197 12.64 10.2197 14 10.5L16.0242 13.705M7.97576 13.705C4.4569 13.163 2 11.9319 2 10.5C2 8.567 6.47715 7 12 7C17.5228 7 22 8.567 22 10.5C22 11.9319 19.5431 13.163 16.0242 13.705M16.0242 13.705L20 20" stroke="black" stroke-width="2" stroke-linecap="round" stroke-linejoin="round"/>
</svg>
