<svg width="24" height="24" viewBox="0 0 24 24" fill="none" xmlns="http://www.w3.org/2000/svg">
<path d="M2 8V7C1.44772 7 1 7.44772 1 8H2ZM6 8V9C6.19742 9 6.39043 8.94156 6.5547 8.83205L6 8ZM12 4H13C13 3.6312 12.797 3.29234 12.4719 3.11833C12.1467 2.94431 11.7522 2.96338 11.4453 3.16795L12 4ZM12 20L11.4453 20.8321C11.7522 21.0366 12.1467 21.0557 12.4719 20.8817C12.797 20.7077 13 20.3688 13 20H12ZM6 16L6.5547 15.1679C6.39043 15.0584 6.19742 15 6 15V16ZM2 16H1C1 16.5523 1.44772 17 2 17V16ZM22.2071 10.7071C22.5976 10.3166 22.5976 9.68342 22.2071 9.29289C21.8166 8.90237 21.1834 8.90237 20.7929 9.29289L22.2071 10.7071ZM16.5503 13.5355C16.1597 13.9261 16.1597 14.5592 16.5503 14.9497C16.9408 15.3403 17.5739 15.3403 17.9645 14.9497L16.5503 13.5355ZM17.9645 9.29289C17.5739 8.90237 16.9408 8.90237 16.5503 9.29289C16.1597 9.68342 16.1597 10.3166 16.5503 10.7071L17.9645 9.29289ZM20.7929 14.9497C21.1834 15.3403 21.8166 15.3403 22.2071 14.9497C22.5976 14.5592 22.5976 13.9261 22.2071 13.5355L20.7929 14.9497ZM2 9H6V7H2V9ZM6.5547 8.83205L12.5547 4.83205L11.4453 3.16795L5.4453 7.16795L6.5547 8.83205ZM11 4V20H13V4H11ZM12.5547 19.1679L6.5547 15.1679L5.4453 16.8321L11.4453 20.8321L12.5547 19.1679ZM6 15H2V17H6V15ZM3 16V8H1V16H3ZM20.7929 9.29289L18.6716 11.4142L20.0858 12.8284L22.2071 10.7071L20.7929 9.29289ZM18.6716 11.4142L16.5503 13.5355L17.9645 14.9497L20.0858 12.8284L18.6716 11.4142ZM16.5503 10.7071L18.6716 12.8284L20.0858 11.4142L17.9645 9.29289L16.5503 10.7071ZM18.6716 12.8284L20.7929 14.9497L22.2071 13.5355L20.0858 11.4142L18.6716 12.8284Z" fill="black"/>
</svg>
