<svg width="24" height="24" viewBox="0 0 24 24" fill="none" xmlns="http://www.w3.org/2000/svg">
<path d="M2 8V7C1.44772 7 1 7.44772 1 8H2ZM6 8V9C6.19742 9 6.39043 8.94156 6.5547 8.83205L6 8ZM12 4H13C13 3.6312 12.797 3.29234 12.4719 3.11833C12.1467 2.94431 11.7522 2.96338 11.4453 3.16795L12 4ZM12 20L11.4453 20.8321C11.7522 21.0366 12.1467 21.0557 12.4719 20.8817C12.797 20.7077 13 20.3688 13 20H12ZM6 16L6.5547 15.1679C6.39043 15.0584 6.19742 15 6 15V16ZM2 16H1C1 16.5523 1.44772 17 2 17V16ZM16.3304 9.49926C16.0538 9.0212 15.4421 8.85785 14.964 9.1344C14.486 9.41095 14.3226 10.0227 14.5992 10.5007L16.3304 9.49926ZM14.5992 13.4994C14.3226 13.9774 14.486 14.5892 14.964 14.8657C15.4421 15.1423 16.0538 14.9789 16.3304 14.5009L14.5992 13.4994ZM2 9H6V7H2V9ZM6.5547 8.83205L12.5547 4.83205L11.4453 3.16795L5.4453 7.16795L6.5547 8.83205ZM11 4V20H13V4H11ZM12.5547 19.1679L6.5547 15.1679L5.4453 16.8321L11.4453 20.8321L12.5547 19.1679ZM6 15H2V17H6V15ZM3 16V8H1V16H3ZM14.5992 10.5007C14.8539 10.941 14.9999 11.4519 14.9999 12.0001H16.9999C16.9999 11.091 16.7564 10.2357 16.3304 9.49926L14.5992 10.5007ZM14.9999 12.0001C14.9999 12.5482 14.8539 13.0591 14.5992 13.4994L16.3304 14.5009C16.7564 13.7644 16.9999 12.9091 16.9999 12.0001H14.9999Z" fill="black"/>
</svg>
