<svg width="24" height="24" viewBox="0 0 24 24" fill="none" xmlns="http://www.w3.org/2000/svg">
<path d="M20 4H21C21 3.44772 20.5523 3 20 3V4ZM20 20V21C20.5523 21 21 20.5523 21 20H20ZM4 20H3C3 20.5523 3.44772 21 4 21V20ZM4 4V3C3.44772 3 3 3.44772 3 4H4ZM15.497 9.93642C15.9743 10.2142 16.5865 10.0525 16.8643 9.57515C17.1421 9.09782 16.9803 8.48567 16.503 8.20786L15.497 9.93642ZM7.49699 8.20786C7.01966 8.48567 6.85791 9.09782 7.13572 9.57515C7.41353 10.0525 8.02568 10.2142 8.50301 9.93642L7.49699 8.20786ZM12 11.75L12 10.75L12 11.75ZM13.5705 13.102C14.0693 13.3392 14.6659 13.1272 14.9031 12.6284C15.1403 12.1297 14.9282 11.5331 14.4295 11.2959L13.5705 13.102ZM9.57095 11.2959C9.07223 11.5332 8.86028 12.1298 9.09755 12.6285C9.33481 13.1273 9.93145 13.3392 10.4302 13.102L9.57095 11.2959ZM19 4V20H21V4H19ZM20 19H4V21H20V19ZM5 20V4H3V20H5ZM4 5H20V3H4V5ZM16.503 8.20786C15.1173 7.40138 13.557 7 12 7V9C13.2149 9 14.4265 9.31338 15.497 9.93642L16.503 8.20786ZM12 7C10.443 7 8.88269 7.40138 7.49699 8.20786L8.50301 9.93642C9.57353 9.31338 10.7851 9 12 9V7ZM12 12.75C12.5403 12.75 13.0786 12.8681 13.5705 13.102L14.4295 11.2959C13.6627 10.9312 12.8302 10.75 12 10.75L12 12.75ZM10.4302 13.102C10.9218 12.8681 11.4598 12.75 12 12.75L12 10.75C11.1698 10.75 10.3375 10.9312 9.57095 11.2959L10.4302 13.102Z" fill="black"/>
<path d="M12 14.875C12.4832 14.875 12.875 15.2668 12.875 15.75C12.875 16.2332 12.4832 16.625 12 16.625C11.5168 16.625 11.125 16.2332 11.125 15.75C11.125 15.2668 11.5168 14.875 12 14.875Z" fill="black" stroke="black" stroke-width="0.75" stroke-linecap="round" stroke-linejoin="round"/>
</svg>
