<svg width="24" height="24" viewBox="0 0 24 24" fill="none" xmlns="http://www.w3.org/2000/svg">
<path d="M14.0129 9.51525C13.5575 8.89936 12.8261 8.5 12.0013 8.5C11.1766 8.5 10.4451 8.89937 9.98976 9.51526M14.0129 9.51525L14.0129 5.47119C14.0129 4.09048 12.8936 2.97119 11.5129 2.97119H9.98976L9.98976 9.51526M14.0129 9.51525C14.1237 9.66513 14.2181 9.82783 14.2936 10.0007M14.2936 10.0007C14.4272 10.3068 14.5013 10.6447 14.5013 11C14.5013 12.286 13.5303 13.3452 12.2815 13.4845M14.2936 10.0007L19.9602 13.2724L19.1987 14.5914C18.5083 15.7871 16.9794 16.1968 15.7836 15.5065L12.9421 13.8659M9.98976 9.51526C9.87896 9.66513 9.7845 9.82783 9.70903 10.0007M9.70903 10.0007C9.57543 10.3068 9.50132 10.6447 9.50132 11C9.50132 12.286 10.4723 13.3452 11.7212 13.4845M9.70903 10.0007L6.20745 12.0224C5.01172 12.7127 4.60203 14.2417 5.29239 15.4374L6.05394 16.7565L11.0606 13.8659M11.7212 13.4845C11.8131 13.4947 11.9066 13.5 12.0013 13.5C12.096 13.5 12.1895 13.4947 12.2815 13.4845M11.7212 13.4845L11.0606 13.8659M12.2815 13.4845L12.9421 13.8659M9.68132 21L11.0606 13.8659M14.3213 21L12.9421 13.8659" stroke="black" stroke-width="2" stroke-linejoin="round"/>
<path d="M19 21L5 21" stroke="black" stroke-width="2" stroke-linecap="round"/>
</svg>
