<svg width="24" height="24" viewBox="0 0 24 24" fill="none" xmlns="http://www.w3.org/2000/svg">
<path d="M18.0858 11.7135L14.3284 19.6425L3 21.1424M18.0858 11.7135L12.4289 6.05666M18.0858 11.7135L19.5 13.1277L22 10.6277L13.5147 2.14246L11.0147 4.64245L12.4289 6.05666M3 21.1424L4.42893 9.74298L12.4289 6.05666M3 21.1424L10 14.1425M11 14.12C11 14.6723 10.5522 15.12 9.99997 15.12C9.44768 15.12 8.99997 14.6723 8.99997 14.12C8.99997 13.5677 9.44768 13.12 9.99997 13.12C10.5522 13.12 11 13.5677 11 14.12Z" stroke="black" stroke-width="2"/>
</svg>
